<?xml version="1.0" standalone="no"?>
<!DOCTYPE svg PUBLIC "-//W3C//DTD SVG 1.1//EN" "http://www.w3.org/Graphics/SVG/1.1/DTD/svg11.dtd" >
<svg xmlns="http://www.w3.org/2000/svg">
<metadata>Generated by IcoMoon</metadata>
<defs>
<font id="icomoon" horiz-adv-x="1024">
<font-face units-per-em="1024" ascent="960" descent="-64" />
<missing-glyph horiz-adv-x="1024" />
<glyph unicode="&#x20;" horiz-adv-x="512" d="" />
<glyph unicode="&#xe313;" glyph-name="arrow-bottom" d="M316 604.667l196-196 196 196 60-60-256-256-256 256z" />
<glyph unicode="&#xe900;" glyph-name="logo" d="M1020.587 338.773c-21.333 0-42.667 0.341-64 0-5.461-0.171-8.704 1.707-11.947 6.144-19.797 26.283-39.936 52.395-60.075 78.507-1.707 2.219-3.413 4.267-6.827 8.363 0-32.256 0-62.123 0-92.331-19.115 0-37.205 0-55.979 0 0 70.656 0 141.312 0 212.309 18.432 0 36.523 0 55.467 0 0-28.501 0-56.661 0-84.992 0.683-0.341 1.195-0.683 1.877-1.024 1.877 2.219 3.755 4.267 5.461 6.485 18.773 24.576 37.547 49.323 56.149 74.069 3.243 4.267 6.485 6.144 11.947 5.973 20.309-0.341 40.619-0.171 62.976-0.171-29.525-34.304-57.856-67.243-86.187-100.352 0.683-1.365 0.853-2.389 1.536-3.243 28.501-34.987 57.173-69.973 85.845-104.96 1.024-1.195 2.56-2.048 3.755-3.072 0-0.512 0-1.195 0-1.707zM738.816 421.376c0 44.885 0 87.040 0 130.048 18.773 0 37.035 0 55.979 0 0-70.485 0-140.971 0-212.48-17.749 0-35.328-0.171-52.907 0.341-2.56 0-5.632 3.413-7.509 5.803-28.672 37.717-57.344 75.605-86.016 113.493-2.389 3.072-4.779 6.144-8.704 11.264 0-44.885 0-87.381 0-130.219-19.285 0-37.547 0-56.32 0 0 70.656 0 141.141 0 212.651 17.92 0 35.84 0.171 53.589-0.341 2.219 0 4.949-3.243 6.656-5.632 28.672-37.547 57.173-75.093 85.675-112.64 2.731-3.584 5.461-6.997 9.557-12.288zM232.107 470.187c26.453 0 51.541 0 77.824 0 0 26.965 0 53.76 0 81.237 19.285 0 37.547 0 56.32 0 0-70.485 0-140.8 0-211.797-18.091 0-36.352 0-55.637 0 0 28.331 0 56.832 0 86.016-26.453 0-51.883 0-78.165 0 0-28.672 0-57.173 0-86.187-19.115 0-37.205 0-55.808 0 0 70.656 0 141.141 0 212.309 18.432 0 36.693 0 55.637 0-0.171-27.307-0.171-53.931-0.171-81.579zM105.472 339.285c-19.456 0-37.547 0-56.661 0 0 55.125 0 109.909 0 165.717-15.531 0-30.208 0-45.056 0 0 16.043 0 31.061 0 46.421 48.811 0 97.109 0 146.261 0 0-15.019 0-30.037 0-46.251-14.507 0-29.184 0-44.544 0 0-55.808 0-110.592 0-165.888zM555.691 339.115c-18.603 0-36.352 0-54.955 0 0 70.827 0 141.483 0 212.48 18.091 0 36.181 0 54.955 0 0-70.485 0-141.141 0-212.48zM394.411 464.896c26.283 0 52.224 0 79.189 0 0-12.629 0.171-24.747-0.171-36.864 0-1.536-2.901-4.437-4.437-4.437-24.576-0.341-49.323-0.171-74.411-0.171-0.171 13.995-0.171 27.136-0.171 41.472z" />
<glyph unicode="&#xe901;" glyph-name="login" d="M687.445 549.035c0 12.971 0 24.576 0 36.181-0.171 30.208 1.536 60.416-0.683 90.453-4.949 63.488-39.424 107.861-96.085 134.656-84.309 39.936-188.075 7.68-231.595-70.997-13.995-25.259-20.48-52.395-18.944-81.067s-10.581-33.451-32.939-32.768c-24.235 0.683-48.299 0.171-72.533 0.171-17.237 0-24.235 7.851-24.917 25.088-6.485 154.965 111.957 270.165 247.979 292.181 109.397 17.579 205.483-11.093 283.648-90.795 50.688-51.712 76.117-115.029 76.288-187.904 0-34.987 0-69.973 0-104.96 0-3.072 0-6.144 0-10.411 13.483 0 26.112 0 38.912 0 8.533 0 17.067 0.171 25.6 0 14.507-0.171 22.528-8.363 22.528-23.040 0-76.288 0-152.405 0-228.693 0-89.088-0.853-178.005 0.341-267.093 0.512-47.616-37.205-84.48-84.48-85.504-26.112-0.683-52.395-0.171-78.507-0.171-176.128 0-352.085 0-528.213 0-19.627 0-37.888 3.925-54.101 15.019-24.064 16.213-36.693 38.741-36.693 68.267 0 165.547 0 331.093 0 496.64 0 17.237 7.509 24.747 25.088 24.747 175.787 0 351.573 0 527.36 0 3.413 0 7.168 0 11.947 0zM513.365 105.813c13.995 0 27.819-0.171 41.813 0 17.067 0.341 25.259 9.557 23.211 26.283-3.925 34.475-8.021 68.779-12.459 103.253-0.683 5.12 0.341 8.021 4.437 11.435 26.112 20.821 36.181 52.395 26.965 82.944-12.288 40.277-56.661 65.707-101.205 56.661-33.451-6.827-57.515-26.112-66.389-60.075-8.533-32.768 2.901-59.563 28.843-80.725 2.048-1.707 3.413-5.632 3.243-8.363-3.925-34.645-8.363-69.291-12.459-104.107-2.048-17.579 5.973-26.795 24.064-27.136 13.141-0.512 26.453-0.341 39.936-0.171z" />
<glyph unicode="&#xe902;" glyph-name="chat" d="M390.315 643.413c121.856-2.389 218.112-36.523 296.619-114.176 52.565-52.053 84.821-115.029 92.672-189.099 8.704-83.627-15.189-158.208-67.413-223.232-57.685-71.851-133.632-114.517-223.232-132.608-100.011-20.139-195.584-6.656-285.696 41.813-2.56 1.365-7.339 1.195-9.899-0.171-42.667-23.552-88.405-29.355-136.192-23.552-5.461 0.683-11.264 2.219-11.093 8.192 0.171 4.267 2.901 10.069 6.315 12.459 24.747 17.749 42.496 40.789 54.443 68.608 2.56 5.803 1.707 9.387-2.389 14.165-40.619 46.421-66.901 99.84-75.435 161.28-11.435 82.603 8.704 157.696 58.197 224.256 57.685 77.653 136.192 123.221 230.059 142.677 27.989 5.461 57.003 7.339 73.045 9.387zM269.824 682.155c4.779 11.435 9.045 23.211 14.677 34.304 40.96 83.115 106.667 139.776 192.341 172.032 129.024 48.469 254.123 38.229 371.712-34.816 70.827-44.032 121.003-105.984 142.677-187.563 27.648-104.107 1.195-195.925-68.096-276.651-4.608-5.461-4.608-8.875-1.365-14.507 12.8-22.016 28.672-40.96 49.664-55.296 5.461-3.755 10.069-7.851 8.021-15.36-1.877-7.168-7.68-8.021-13.995-8.704-41.643-4.779-82.261-1.195-121.515 13.824-5.291 2.048-6.997 4.608-7.68 10.411-2.56 23.381-5.461 46.763-9.045 69.973-0.853 5.632-0.171 8.533 4.267 11.947 43.008 33.109 75.093 74.581 89.771 127.317 22.869 82.432 1.877 154.624-54.784 216.917-47.787 52.736-108.885 82.261-178.517 93.867-84.309 13.995-164.181 0.512-237.739-44.373-38.571-23.552-69.803-54.443-92.843-93.355-1.536-2.56-4.608-5.291-7.509-5.803-25.941-4.949-52.224-9.387-80.043-14.165z" />
<glyph unicode="&#xe903;" glyph-name="share" d="M651.605 184.491c-101.717 51.712-203.093 103.083-304.128 154.283-70.656-90.965-197.12-92.331-270.848-20.48-70.315 68.608-72.192 179.883-4.608 251.221 70.656 74.581 199.851 78.507 272.725-12.459 3.413 1.707 6.997 3.413 10.411 5.291 95.744 48.64 191.488 97.28 287.232 145.579 5.803 2.901 8.192 5.291 6.315 12.629-22.869 96.256 40.277 193.536 138.581 213.504 97.28 19.797 191.659-40.96 213.333-137.387 21.845-97.621-43.691-196.608-142.336-213.675-69.632-12.117-127.659 9.899-173.739 63.317-0.853 1.024-1.877 2.219-2.731 3.243-0.341 0.341-0.853 0.683-2.048 1.365-101.205-51.371-202.581-102.741-303.787-154.112 2.219-11.264 4.608-21.675 6.315-32.427 3.072-19.627 0.853-39.083-4.096-58.197-1.365-4.949-0.171-6.997 4.096-9.216 99.669-50.347 199.168-100.864 298.667-151.381 0.512-0.171 1.024-0.341 2.389-0.683 37.376 44.203 85.163 68.608 143.872 67.925 43.349-0.512 81.92-15.019 114.859-43.349 67.072-57.685 82.261-153.259 36.864-228.011-45.568-74.923-139.264-106.155-221.013-74.24-80.896 31.573-134.997 123.051-106.325 217.259z" />
<glyph unicode="&#xe904;" glyph-name="search" horiz-adv-x="986" d="M648.928 207.908c-187.861-130.579-436.105-83.776-566.324 90.702-127.711 170.961-105.022 411.018 52.304 553.627 157.615 142.898 395.489 143.619 552.003 2.543 163.152-147.046 186.129-398.591 41.067-574.187 2.886-3.048 5.862-6.24 8.874-9.397q115.429-120.407 230.966-240.76c15.385-16.016 21.877-34.268 15.565-55.911-11.561-39.679-60.781-51.636-90.377-21.643-29.092 29.561-57.498 59.789-86.211 89.728q-74.56 77.806-149.084 155.631c-2.886 3.030-5.609 6.204-8.783 9.667zM717.013 546.98c0.739 166.254-136.314 304.48-302.55 305.129-168.617 0.721-306.121-135.268-306.807-303.272-0.685-170.312 135.034-307.366 304.985-307.997 166.957-0.631 303.741 136.928 304.426 306.158z" />
<glyph unicode="&#xe905;" glyph-name="right-arrow" horiz-adv-x="2384" d="M2346.405 432.294h-2308.712c-18.847 0-37.693 6.282-37.693 15.706s15.706 15.706 37.693 15.706h2308.712c18.847 0 37.693-6.282 37.693-15.706s-18.847-15.706-37.693-15.706zM1972.613 36.515c-3.141 0-9.423 0-12.564 3.141-6.282 6.282-6.282 15.706 0 21.988l383.215 383.215-380.074 386.356c-6.282 6.282-6.282 15.706 0 21.988s15.706 6.282 21.988 0l392.638-395.779c3.141-3.141 3.141-6.282 3.141-12.564s-3.141-9.423-3.141-12.564l-392.638-389.497c-3.141-3.141-6.282-6.282-12.564-6.282z" />
<glyph unicode="&#xe906;" glyph-name="coment" d="M484.693 7.339c-142.507 4.608-283.648 70.997-384.853 213.163-58.709 82.261-85.504 175.445-80.384 276.48 6.827 132.949 63.317 242.176 163.669 328.363 85.333 73.387 185.173 113.323 297.472 119.467 163.157 9.045 302.592-44.715 412.843-166.4 82.432-90.965 121.173-199.68 116.224-322.731-3.413-82.261-29.013-157.696-73.899-226.645-2.219-3.243-4.096-7.851-3.755-11.605 4.779-52.736 12.8-104.96 30.379-155.136 9.899-28.331 22.357-55.296 42.837-77.824 5.803-6.315 6.656-13.824 2.389-21.333-3.755-6.485-9.899-9.216-17.408-7.851-85.675 15.019-169.472 37.205-246.613 78.507-19.456 10.411-34.816 11.776-55.467 3.755-55.979-21.845-112.469-30.208-203.435-30.208zM938.496 8.533c-3.925 9.216-7.168 16.725-10.24 24.405-23.552 60.757-33.28 124.416-39.253 188.757-0.853 9.045 1.365 16.043 6.485 23.552 43.179 62.805 67.755 132.267 71.851 208.384 5.291 99.157-21.163 189.952-82.091 268.117-107.52 137.899-251.221 194.901-423.765 178.859-101.717-9.557-190.293-50.859-265.387-120.149-124.245-114.688-167.253-289.792-109.739-443.904 70.827-189.781 271.872-309.248 485.888-283.648 49.152 5.803 96.085 19.627 141.483 39.424 3.413 1.536 9.216 1.365 12.288-0.512 52.224-32.768 109.056-54.784 167.936-71.509 14.165-4.267 28.843-7.68 44.544-11.776z" />
<glyph unicode="&#xe907;" glyph-name="comillas" d="M333.312 194.048c-24.576 41.984-41.472 86.016-50.688 132.608-8.704 46.592-9.728 92.16-2.56 137.728s22.016 89.088 44.544 130.56 52.224 78.848 89.6 112.128l48.128-30.208c8.704-6.144 12.8-13.312 11.776-21.504-1.024-8.704-3.584-15.36-8.192-19.968-15.36-18.944-28.672-41.984-39.424-69.12s-17.92-56.32-20.992-87.552c-3.072-31.232-1.536-62.976 4.608-96.256s17.92-65.024 36.352-95.744c7.68-12.288 9.728-23.552 6.656-33.28s-10.752-16.896-21.504-22.016l-98.304-37.376zM603.136 194.048c-24.576 41.984-41.472 86.016-50.688 132.608-8.704 46.592-9.728 92.16-2.56 137.728s22.016 89.088 44.544 130.56 52.224 78.848 89.6 112.128l48.128-30.208c8.704-6.144 12.8-13.312 11.776-21.504-1.024-8.704-3.584-15.36-8.192-19.968-15.36-18.944-28.672-41.984-39.424-69.12s-17.92-56.32-20.992-87.552c-3.072-31.232-1.536-62.976 4.608-96.256s17.92-65.024 36.352-95.744c7.68-12.288 9.728-23.552 6.656-33.28s-10.752-16.896-21.504-22.016l-98.304-37.376z" />
<glyph unicode="&#xe908;" glyph-name="follow" d="M340.992 463.189c-142.677 83.627-170.325 275.797-63.147 397.824 101.547 115.541 282.965 121.515 391.509 11.264 59.563-60.416 84.821-133.973 73.728-218.112-10.923-83.797-55.637-146.773-128-192 66.389-20.139 124.928-52.053 177.323-97.28-17.749-9.045-34.645-17.749-51.883-25.941-2.048-1.024-5.973 0.341-8.021 1.877-51.883 38.741-109.227 64.683-172.885 77.141-230.741 44.885-452.096-106.496-491.691-332.971-2.389-13.824-3.925-27.989-5.973-42.837 172.203 0 342.699 0 513.877 0 0-18.773 0-36.693 0-55.979-3.243 0-6.315 0-9.387 0-175.787 0-351.573 0-527.36 0-24.064 0-34.987 10.411-33.963 34.304 7.68 187.563 96.768 323.925 261.461 411.477 23.893 12.459 49.664 20.992 74.411 31.232zM479.232 895.488c-115.883 0-209.579-92.331-209.749-206.677-0.171-114.176 93.355-206.677 209.408-207.189 115.883-0.341 210.603 92.843 210.603 207.019-0.512 114.347-94.549 206.848-210.261 206.848zM903.339 89.6c-3.072 0-6.144 0-9.216 0-103.253 0-206.507 0-309.76 0-4.267 0-8.533 0-12.629 0.853-15.872 3.243-26.624 17.408-25.429 32.597 1.195 15.872 13.995 28.331 30.208 29.355 2.901 0.171 5.632 0 8.533 0 103.595 0 207.019 0 310.613 0 3.072 0 6.144 0 9.045 0 0.512 0.683 1.024 1.536 1.536 2.219-2.901 2.389-6.144 4.779-8.875 7.339-29.013 28.501-58.027 57.003-86.869 85.675-17.749 17.749-11.435 46.421 11.776 52.565 12.117 3.243 23.723 1.365 33.28-7.851 50.005-49.323 100.181-98.475 150.016-147.968 13.653-13.483 13.653-32.085 0-45.568-50.005-49.664-100.352-99.157-150.699-148.651-13.141-12.971-33.792-12.459-46.080 0.341-12.288 12.629-11.605 31.573 1.877 45.056 29.013 28.843 58.197 57.515 87.381 86.357 2.048 2.048 4.437 3.413 6.827 5.12-0.341 0.853-0.853 1.707-1.536 2.56z" />
<glyph unicode="&#xe909;" glyph-name="check" d="M511.488 906.752c-252.928 0-458.752-205.824-458.752-458.752s205.824-458.752 458.752-458.752 458.752 205.824 458.752 458.752-205.824 458.752-458.752 458.752zM511.488 47.616c-220.672 0-400.384 179.712-400.384 400.384s179.712 400.384 400.384 400.384 400.384-179.712 400.384-400.384-179.712-400.384-400.384-400.384zM689.152 602.112l-231.936-232.96-121.344 121.856c-14.848 14.848-36.864 14.848-51.2 0-14.848-14.848-14.848-36.864 0-51.2l146.432-146.432c5.632-7.168 16.384-10.24 25.088-10.24s17.408 3.072 25.088 10.24l258.048 258.048c13.312 14.848 13.312 36.864 1.536 51.2-14.848 14.336-36.864 14.336-51.712-0.512z" />
<glyph unicode="&#xe90a;" glyph-name="favorite" d="M513.877 743.595c9.045 13.653 18.261 29.696 29.184 44.544 37.547 51.029 84.821 88.576 147.456 103.595 105.984 25.429 214.699-19.797 274.773-114.688 37.888-59.904 52.395-125.781 47.275-196.267-5.461-75.093-37.547-139.093-81.92-197.973-41.643-55.467-90.965-104.107-142.507-150.016-84.48-75.264-169.984-149.333-255.147-223.915-12.459-10.923-27.477-11.264-39.424-0.683-98.475 86.869-197.461 173.227-294.912 261.291-48.128 43.52-91.477 91.819-126.976 146.773-29.355 45.739-51.371 94.72-57.003 149.163-11.264 109.227 17.408 204.971 103.936 276.651 103.595 85.845 250.88 73.728 340.992-26.283 20.139-22.528 36.523-48.299 54.272-72.192zM512.853 70.315c2.901 2.389 5.291 4.437 7.68 6.485 37.547 32.597 75.093 65.195 112.64 97.963 65.024 56.491 130.731 112.299 190.635 174.592 38.571 40.107 74.752 82.091 99.669 132.267 45.909 92.331 44.544 183.467-12.459 270.336-49.152 74.923-143.019 105.813-224.256 76.459-46.592-16.896-80.043-49.664-106.837-90.283-16.555-25.259-29.184-52.565-39.083-81.237-4.949-14.507-15.872-22.187-30.208-21.333-12.288 0.683-21.675 8.363-26.453 22.016-15.019 43.179-36.011 82.773-66.731 116.907-79.36 88.235-195.755 78.677-264.875 19.115-66.56-57.344-88.064-132.949-79.872-218.112 4.779-49.152 25.6-92.672 52.736-133.291 25.6-38.229 54.955-73.387 88.576-104.619 63.317-58.88 127.659-116.565 192-174.251 34.987-31.403 70.827-61.611 106.837-93.013z" />
<glyph unicode="&#xe90b;" glyph-name="list" d="M2.56 957.781c131.584 0 262.827 0 394.923 0 0-75.264 0-150.016 0-225.451-131.584 0-262.827 0-394.923 0 0 74.581 0 149.504 0 225.451zM1021.611 957.611c0-75.605 0-150.357 0-225.451-131.755 0-262.997 0-395.093 0 0 75.093 0 150.016 0 225.451 131.584 0 263.168 0 395.093 0zM397.483-61.781c-131.925 0-263.168 0-394.923 0 0 75.093 0 150.016 0 225.621 131.413 0 262.827 0 394.923 0 0-74.923 0-149.845 0-225.621zM626.176-61.44c0 75.093 0 149.845 0 225.109 131.755 0 263.168 0 395.264 0 0-74.752 0-149.675 0-225.109-131.243 0-262.656 0-395.264 0zM2.389 335.531c0 74.923 0 149.675 0 224.768 131.755 0 263.168 0 395.264 0 0-75.093 0-149.675 0-224.768-131.925 0-263.339 0-395.264 0zM626.517 560.64c131.925 0 263.168 0 395.093 0 0-74.923 0-149.675 0-224.939-131.413 0-262.827 0-395.093 0 0 74.752 0 149.333 0 224.939z" />
<glyph unicode="&#xe90c;" glyph-name="grid" d="M229.717 955.904c0-75.605 0-150.187 0-225.451-75.264 0-150.187 0-225.621 0 0 75.093 0 150.016 0 225.451 75.093 0 150.016 0 225.621 0zM1023.317 955.904c0-75.605 0-150.357 0-225.451-75.264 0-150.187 0-225.621 0 0 75.264 0 150.187 0 225.451 75.435 0 150.357 0 225.621 0zM229.547-63.317c-75.264 0-150.187 0-225.451 0 0 75.264 0 150.187 0 225.621 75.264 0 150.187 0 225.451 0 0-75.435 0-150.357 0-225.621zM1023.317-63.317c-75.605 0-150.357 0-225.451 0 0 75.264 0 150.187 0 225.621 75.264 0 150.187 0 225.451 0 0-75.435 0-150.187 0-225.621zM626.176 730.453c-75.093 0-149.845 0-224.939 0 0 75.435 0 150.187 0 225.451 75.093 0 149.845 0 224.939 0 0-75.264 0-150.187 0-225.451zM4.096 333.824c0 74.923 0 149.675 0 224.768 75.093 0 150.016 0 225.451 0 0-74.923 0-149.675 0-224.768-75.264 0-150.016 0-225.451 0zM797.867 333.824c0 74.923 0 149.333 0 224.597 74.923 0 149.675 0 225.28 0 0-74.581 0-149.333 0-224.597-75.093 0-150.016 0-225.28 0zM401.408 162.304c75.093 0 149.504 0 224.597 0 0-75.093 0-150.016 0-225.621-74.581 0-149.163 0-224.597 0 0 74.923 0 149.845 0 225.621zM401.067 333.995c0 75.093 0 149.504 0 224.597 75.093 0 149.675 0 224.939 0 0-74.752 0-149.333 0-224.597-74.752 0-149.333 0-224.939 0z" />
<glyph unicode="&#xe90d;" glyph-name="filter" d="M620.203 421.035c-191.317 0-381.952 0-573.44 0 0 17.408 0 34.304 0 52.224 191.147 0 382.293 0 573.611 0 7.509 32.768 24.064 59.051 50.347 78.507 73.387 54.272 178.688 17.749 202.581-70.144 1.707-6.485 4.096-8.363 10.752-8.363 32.085 0.341 64.171 0.171 97.109 0.171 0-17.408 0-34.304 0-51.883-34.816 0-69.632 0-104.448 0-20.821-67.755-64.683-105.472-136.192-103.765-51.371 1.024-103.936 36.693-120.32 103.253zM982.699 109.056c0-17.92 0-34.304 0-51.883-3.755 0-7.339 0-10.923 0-150.187 0-300.373 0-450.56 0.171-6.827 0-10.069-1.195-12.117-8.875-15.531-57.003-66.731-95.403-125.611-95.403-58.368 0.171-108.885 38.741-124.587 95.403-1.877 6.656-4.267 8.875-11.435 8.704-63.659-0.341-127.488-0.171-191.147-0.171-3.072 0-6.144 0-9.899 0 0 17.408 0 34.304 0 51.883 3.755 0 7.168 0 10.411 0 63.488 0 126.805 0.171 190.293-0.171 6.997 0 9.557 1.877 11.605 8.704 15.872 57.173 66.56 95.573 125.44 95.403 58.539-0.171 109.056-38.229 124.757-95.232 2.048-7.509 5.291-8.875 12.288-8.875 149.845 0.171 299.861 0.171 449.707 0.171 3.755 0.171 7.509 0.171 11.776 0.171zM982.699 837.291c0-17.749 0-34.133 0-52.053-4.096 0-7.851 0-11.776 0-218.624 0-437.419 0-656.043 0.171-8.704 0-11.947-2.389-14.336-10.752-18.603-64.853-82.432-103.424-149.845-91.136-63.659 11.605-109.568 72.363-104.448 137.899 4.949 62.976 54.613 113.152 118.101 119.296 61.952 6.144 120.661-34.645 137.045-95.744 1.877-6.827 4.779-8.021 11.093-8.021 219.477 0.171 439.125 0.171 658.603 0.171 3.755 0.171 7.339 0.171 11.605 0.171z" />
<glyph unicode="&#xe90e;" glyph-name="phone" d="M208.66 279.314c101-120.733 222.581-215.791 361.349-283.053 52.834-25.038 123.491-54.743 202.211-59.836 4.88-0.212 9.548-0.424 14.429-0.424 52.834 0 95.271 18.248 129.857 55.804 0.212 0.212 0.637 0.637 0.849 1.061 12.307 14.853 26.311 28.22 40.952 42.437 9.973 9.548 20.157 19.521 29.918 29.706 45.195 47.105 45.195 106.941-0.424 152.56l-127.523 127.523c-21.643 22.492-47.529 34.374-74.689 34.374s-53.258-11.882-75.538-34.162l-75.962-75.962c-7.002 4.031-14.216 7.639-21.006 11.034-8.487 4.244-16.338 8.275-23.34 12.731-69.172 43.922-131.978 101.212-192.027 174.84-30.342 38.405-50.712 70.657-64.928 103.546 19.945 18.036 38.617 36.92 56.653 55.38 6.366 6.578 12.943 13.155 19.521 19.733 22.916 22.916 35.223 49.439 35.223 76.386s-12.094 53.47-35.223 76.386l-63.231 63.231c-7.426 7.426-14.429 14.641-21.643 22.067-14.004 14.429-28.645 29.281-43.073 42.649-21.855 21.431-47.529 32.676-74.689 32.676-26.947 0-52.834-11.246-75.538-32.889l-79.357-79.357c-28.857-28.857-45.195-63.867-48.59-104.395-4.031-50.712 5.305-104.607 29.494-169.747 37.132-100.787 93.149-194.361 176.325-294.299zM54.614 738.904c2.546 28.22 13.368 51.773 33.737 72.143l78.932 78.932c12.307 11.882 25.886 18.036 39.042 18.036 12.943 0 26.099-6.153 38.193-18.46 14.216-13.155 27.584-26.947 42.012-41.588 7.214-7.426 14.641-14.853 22.067-22.492l63.231-63.231c13.155-13.155 19.945-26.523 19.945-39.678s-6.79-26.523-19.945-39.678c-6.578-6.578-13.155-13.368-19.733-19.945-19.733-19.945-38.193-38.83-58.563-56.865-0.424-0.424-0.637-0.637-1.061-1.061-17.611-17.611-14.853-34.374-10.609-47.105 0.212-0.637 0.424-1.061 0.637-1.697 16.338-39.254 39.042-76.598 74.477-121.157 63.655-78.508 130.705-139.405 204.545-186.298 9.124-5.941 18.884-10.609 28.008-15.277 8.487-4.244 16.338-8.275 23.34-12.731 0.849-0.424 1.485-0.849 2.334-1.273 7.002-3.607 13.792-5.305 20.582-5.305 16.975 0 28.008 10.821 31.615 14.429l79.357 79.357c12.307 12.307 25.674 18.884 38.83 18.884 16.126 0 29.281-9.973 37.557-18.884l127.947-127.735c25.462-25.462 25.25-53.046-0.637-79.993-8.912-9.548-18.248-18.672-28.22-28.22-14.853-14.429-30.342-29.281-44.346-46.044-24.401-26.311-53.47-38.617-91.027-38.617-3.607 0-7.426 0.212-11.034 0.424-69.596 4.456-134.312 31.615-182.903 54.743-131.978 63.867-247.831 154.47-343.95 269.474-79.145 95.271-132.403 183.964-167.625 279.022-21.855 58.351-30.13 105.243-26.735 147.892z" />
<glyph unicode="&#xe90f;" glyph-name="location" horiz-adv-x="986" d="M496.671-22.701c-19.658 27.052-38.774 53.563-58.071 79.893-75.384 103.879-151.129 207.577-226.333 311.636-49.234 68.351-67.269 145.719-62.399 228.678 3.787 64.383 21.822 124.438 58.071 178.181 52.48 77.548 126.602 124.077 217.496 141.571 109.47 21.281 209.561-2.344 297.389-72.499 63.662-51.038 99.551-119.028 114.7-198.019 15.69-81.877 6.853-161.229-30.659-236.433-6.853-13.526-14.788-26.691-23.625-39.135-93.238-128.766-186.657-257.353-280.076-385.939-2.164-2.344-4.148-4.869-6.492-7.935zM496.671 79.014c2.344 2.886 3.787 4.869 5.23 6.853 53.563 73.942 107.305 147.883 160.868 221.825 23.265 31.921 47.070 63.482 69.794 95.944 51.759 73.761 62.399 155.458 44.004 241.843-12.624 59.153-40.037 110.732-87.287 149.687-77.548 64.023-166.459 83.68-263.845 60.957-80.614-18.936-143.374-63.842-182.329-138.144-28.675-54.645-38.414-113.257-33.003-174.213 4.509-50.316 19.658-97.026 49.595-138.325 69.974-96.485 139.948-192.789 210.102-289.093 8.657-12.444 17.493-24.527 26.871-37.331zM496.671 422.752c-84.943 0.361-154.195 69.613-154.015 154.375 0.18 85.123 69.794 154.556 154.917 154.195 84.582-0.361 154.015-70.154 153.654-154.736-0.18-84.582-69.974-154.015-154.556-153.834zM496.851 671.628c-52.12 0-94.14-42.201-94.321-94.14 0-52.48 42.201-94.681 94.501-94.681s94.321 42.381 94.14 95.042c-0.18 51.939-42.201 93.779-94.321 93.779z" />
<glyph unicode="&#xe910;" glyph-name="clock" horiz-adv-x="986" d="M492.342 926.456c270.878 0.18 479.177-223.448 478.456-480.981-0.721-264.206-211.184-480.079-478.095-479.899-266.55 0-476.833 215.332-477.915 479.358-1.262 257.172 206.676 481.341 477.554 481.522zM492.703 66.029c214.611 0 376.38 176.378 377.462 378.364 1.262 212.266-176.738 381.069-376.741 381.43-201.265 0.541-379.086-168.803-378.184-380.528 0.721-202.347 162.671-379.266 377.462-379.266zM535.265 604.359c0-36.249 0.18-72.679-0.18-108.928 0-5.591 1.443-9.198 6.132-12.805 6.492-5.050 12.444-11.362 17.674-17.854 3.066-3.787 5.951-5.23 10.821-5.23 59.875 0.18 119.749 0.18 179.624 0 17.133 0 30.118-8.116 38.053-23.445 7.755-14.969 6.312-29.937-3.066-43.824-7.033-10.28-17.133-16.411-29.757-17.674-3.968-0.361-8.116-0.541-12.083-0.541-57.169 0-114.339-0.18-171.508 0.18-5.771 0-9.198-1.803-12.805-6.312-21.1-27.052-49.054-38.053-82.598-30.839-34.085 7.394-55.907 29.396-62.94 63.662-6.673 33.184 4.328 60.957 31.2 81.696 4.509 3.607 6.492 6.853 6.492 12.624-0.18 72.138-0.18 144.096 0 216.234 0 25.068 17.674 43.824 41.299 44.365 24.527 0.541 43.644-17.674 43.824-42.381 0-36.249-0.18-72.679-0.18-108.928 0 0 0 0 0 0z" />
<glyph unicode="&#xe911;" glyph-name="bg-check" horiz-adv-x="986" d="M916.154 685.334c-9.198-34.266-18.215-67.81-27.412-101.174-2.886-10.46-5.41-20.92-8.657-31.38-1.623-5.23-0.721-8.837 3.427-12.805 30.478-30.298 60.596-60.776 90.894-91.074 2.164-2.164 4.148-4.328 5.591-5.771-28.314-28.855-55.366-58.251-84.762-85.303-14.247-12.985-16.952-24.347-11.362-42.381 11.181-35.348 19.477-71.597 28.855-107.486 0.721-2.525 1.262-5.23 1.984-8.476-21.1-5.591-41.84-11.181-62.399-16.772-23.084-6.132-45.988-12.444-69.253-18.215-6.312-1.623-9.378-4.328-11.001-10.64-11.001-41.84-22.543-83.68-33.905-125.52-0.541-1.803-1.082-3.607-1.984-6.132-15.69 4.148-31.019 8.296-46.349 12.444-28.855 7.755-57.53 15.51-86.205 23.625-5.23 1.443-8.837 0.721-12.805-3.427-30.298-30.478-60.776-60.596-91.074-90.894-2.164-2.164-4.328-4.148-5.591-5.41-31.921 31.38-63.662 62.219-94.862 93.599-6.492 6.492-11.722 7.755-20.379 5.41-39.856-11.181-80.073-21.461-120.29-31.921-2.525-0.721-5.23-1.262-8.476-1.984-5.591 21.281-11.181 41.84-16.772 62.399-6.132 23.084-12.444 45.988-18.215 69.253-1.623 6.312-4.328 9.198-10.64 11.001-41.84 11.001-83.68 22.543-125.52 33.905-1.803 0.541-3.607 1.082-6.132 1.984 3.607 13.706 7.214 27.232 11.001 40.758 8.296 30.659 16.592 61.137 25.068 91.796 1.443 5.23 0.721 8.837-3.427 12.805-30.478 30.298-60.596 60.776-90.894 91.074-2.164 2.164-4.148 4.328-5.591 5.771 27.593 27.954 54.825 55.727 82.057 83.319 6.673 6.673 16.231 12.805 18.576 20.74 2.164 7.755-3.427 17.674-5.771 26.511-9.198 34.807-18.395 69.613-27.773 104.6-0.721 2.525-1.262 5.23-1.984 8.476 21.641 5.771 42.922 11.542 64.023 17.133 23.084 6.132 45.988 12.444 69.253 18.035 5.591 1.443 7.755 4.328 9.198 9.558 11.181 42.201 22.723 84.221 34.085 126.422 0.541 1.803 1.082 3.607 1.984 6.132 13.526-3.607 26.871-7.033 40.037-10.64 30.839-8.296 61.678-16.772 92.517-25.248 5.23-1.443 8.837-0.721 12.805 3.246 30.298 30.478 60.776 60.596 91.074 90.894 2.164 2.164 4.328 4.148 5.771 5.591 27.954-27.593 55.727-54.825 83.319-82.057 6.673-6.673 12.805-16.231 20.74-18.576 7.755-2.164 17.674 3.427 26.511 5.771 34.807 9.198 69.613 18.395 104.6 27.773 2.525 0.721 5.23 1.262 8.476 1.984 5.591-21.281 11.181-41.84 16.772-62.399 6.132-23.084 12.444-45.988 18.215-69.253 1.623-6.312 4.328-9.198 10.64-11.001 41.84-11.001 83.68-22.543 125.52-33.905 1.984-0.721 3.607-1.262 6.492-2.164z" />
<glyph unicode="&#xe912;" glyph-name="check2" horiz-adv-x="986" d="M376.921 383.256c17.313 18.936 33.364 36.79 49.595 54.464 109.47 120.651 218.939 241.302 328.228 361.953 24.707 27.232 54.284 44.004 91.615 44.726 51.939 0.902 99.19-31.2 119.208-82.418 22.904-59.153 14.969-114.339-28.134-161.95-155.097-171.689-310.735-342.656-466.012-514.164-24.527-27.052-53.923-43.644-90.894-44.365-37.872-0.902-69.072 14.247-94.321 42.020-44.545 48.693-88.73 97.567-133.095 146.44-34.626 38.053-69.433 75.925-103.698 114.339-50.136 56.268-47.972 148.244 4.689 202.167 50.316 51.579 127.143 51.398 176.738-1.082 29.937-31.56 58.612-64.383 88.008-96.485 17.854-19.658 35.708-39.315 53.563-58.973 1.443-1.984 2.705-4.148 4.509-6.673z" />
<glyph unicode="&#xe913;" glyph-name="star" d="M1024 562.95l-353.78 51.408-158.22 320.582-158.216-320.582-353.784-51.408 256-249.538-60.432-352.352 316.432 166.358 316.432-166.358-60.434 352.352 256.002 249.538z" />
<glyph unicode="&#xe914;" glyph-name="star-empty" d="M1024 562.95l-353.78 51.408-158.22 320.582-158.216-320.582-353.784-51.408 256-249.538-60.432-352.352 316.432 166.358 316.432-166.358-60.434 352.352 256.002 249.538zM512 206.502l-223.462-117.48 42.676 248.83-180.786 176.222 249.84 36.304 111.732 226.396 111.736-226.396 249.836-36.304-180.788-176.222 42.678-248.83-223.462 117.48z" />
<glyph unicode="&#xe915;" glyph-name="marker" horiz-adv-x="986" d="M554.742 881.009c-42.922-82.778-41.479-162.671 17.674-235.35 55.186-67.629 128.406-85.664 213.348-62.58 0.361-3.066 0.721-6.312 0.902-9.739 3.607-64.023-10.28-124.077-38.414-181.608-50.136-102.977-111.994-198.56-180.345-290.175-32.823-44.004-67.629-86.746-101.715-129.849-3.246-4.148-7.755-8.116-12.624-9.919-9.198-3.427-16.231 1.262-22.002 8.476-38.414 49.415-78.089 98.108-115.241 148.424-63.121 85.484-119.749 175.115-166.639 270.698-27.412 55.907-41.66 114.159-40.037 176.558 4.148 159.786 122.274 298.652 279.535 327.507 54.645 9.919 108.387 6.132 161.229-11.001 1.623-0.361 2.886-0.902 4.328-1.443zM448.518 431.589c65.465-0.18 119.389 54.104 119.749 120.651 0.361 67.449-53.382 122.815-119.389 122.815-65.646 0.18-119.569-54.645-119.749-121.733-0.18-66.728 53.563-121.553 119.389-121.733zM722.824 615.541c-85.844 0.18-155.638 71.236-155.818 158.704 0 88.189 70.154 159.245 157.081 159.064 85.484-0.18 154.917-71.777 154.736-159.605-0.18-87.467-69.974-158.163-155.999-158.163zM749.695 801.657c0 10.099 0 19.117 0 28.134 0 5.41 0.18 11.001-0.18 16.411-1.082 14.247-12.444 24.888-26.511 24.707s-25.609-11.001-26.15-25.248c-0.541-14.428-0.18-28.855-0.18-44.004-14.428 0-27.773 0.18-41.119 0-18.215-0.541-30.298-16.051-26.33-33.725 2.705-12.263 12.985-20.379 26.15-20.559 13.526-0.18 27.052 0 41.299 0 0-15.149-0.18-29.216 0-43.103 0.361-15.149 12.263-26.691 26.691-26.511 14.608 0.18 25.789 11.542 26.15 27.052 0.361 13.887 0 27.773 0 42.561 13.887 0 26.691 0 39.496 0 16.952 0.18 28.855 11.181 29.036 26.871 0.18 15.87-12.083 27.412-29.396 27.412-12.624 0.18-25.248 0-38.955 0z" />
<glyph unicode="&#xe916;" glyph-name="alarm" horiz-adv-x="986" d="M656.817 82.26c-21.1-81.516-93.419-123.717-153.834-126.963-61.137-3.246-146.26 36.43-169.524 126.963-3.066 0-6.312 0-9.558 0-81.155 0-162.311 0.361-243.646-0.361-22.002-0.18-45.988 23.445-43.283 45.086 1.803 14.788 7.935 26.871 21.281 34.807 18.215 10.821 33.905 24.527 46.89 41.119 25.068 32.101 42.922 68.351 55.546 106.945 23.625 72.138 33.905 146.44 33.364 222.185-0.361 49.595 9.558 96.485 31.921 141.030 10.64 21.281 24.527 40.037 39.135 58.432 19.297 24.707 44.004 42.381 69.433 60.055 20.74 14.428 43.463 23.625 66.908 31.56 4.869 1.623 5.951 3.787 6.132 8.476 0.361 13.165-0.361 26.511 2.525 39.135 14.247 62.399 91.796 88.549 140.85 47.070 20.199-17.133 32.282-39.676 31.921-67.269 0-8.296-2.344-18.395 1.443-24.347 3.607-5.41 14.067-6.312 21.461-9.017 43.644-16.592 81.155-42.561 112.175-76.827 52.48-58.071 78.811-126.602 78.45-205.594-0.361-70.154 7.574-139.587 27.232-207.217 12.444-42.561 29.577-82.959 56.628-118.667 14.788-19.658 32.642-35.167 53.021-48.333 23.084-14.788 27.052-45.808 8.476-64.383-9.198-9.198-20.018-14.608-34.085-14.608-80.975 0.541-161.77 0.18-242.745 0.18-2.525 0.541-5.23 0.541-8.116 0.541zM804.7 167.563c-8.476 14.788-16.772 28.675-24.527 42.922-20.379 37.331-33.905 77.188-44.365 118.306-17.313 68.351-25.068 137.964-24.166 208.479 0.541 55.366-18.215 103.157-53.743 144.817-23.265 27.232-53.202 46.349-86.025 58.432-55.546 20.379-111.273 20.199-165.737-6.312-31.741-15.329-59.514-34.987-81.336-63.301-30.118-39.135-45.447-82.778-45.086-131.832 0.361-62.94-5.41-125.16-18.756-186.657-14.247-65.285-36.069-127.504-74.483-183.050-0.18-0.361 0-0.902 0-1.803 205.774 0 411.908 0 618.223 0z" />
<glyph unicode="&#xe917;" glyph-name="email" horiz-adv-x="986" d="M495.408 83.703c-117.044 0-234.268 0-351.312 0-72.138 0-126.242 54.104-126.242 126.061 0 160.327 0 320.834 0 481.161 0 72.138 53.923 126.422 126.061 126.422 234.99 0 469.98 0 705.15 0 70.515 0 124.979-54.464 124.979-124.799 0-161.229 0-322.457 0-483.505 0-70.876-54.464-125.16-125.52-125.16-117.765-0.18-235.531-0.18-353.116-0.18zM495.949 153.496c116.864 0 233.727 0 350.591 0 35.528 0 57.891 22.182 57.891 57.53 0 159.245 0 318.67 0 477.915 0 36.43-22.363 58.612-58.612 58.612-233.186 0-466.192 0-699.379 0-36.43 0-58.793-22.182-58.793-58.432 0-159.064 0-318.129 0-477.013 0-4.869 0-9.739 0.902-14.608 5.23-26.511 26.871-43.824 54.464-44.004 117.585 0 235.17 0 352.936 0zM496.31 428.883c29.216 26.33 57.71 51.939 86.205 77.548 74.302 66.908 148.785 133.996 223.267 200.724 21.1 18.936 51.939 10.46 58.612-15.87 3.607-14.428-1.262-26.511-12.263-36.249-48.333-43.283-96.485-86.746-144.817-130.209-25.068-22.543-50.316-45.267-76.647-68.892 2.886-2.344 5.591-4.148 7.935-6.312 71.417-67.81 142.653-135.8 214.070-203.61 11.181-10.64 16.051-23.084 11.903-38.053-7.214-25.429-38.233-33.184-57.891-14.428-31.741 29.937-63.121 60.055-94.681 89.992-41.84 39.856-83.861 79.893-125.701 119.749-1.984 1.803-3.968 3.607-6.492 5.951-2.344-1.984-4.509-3.787-6.673-5.591-17.133-15.329-34.085-30.839-51.218-46.168-15.69-14.067-33.725-14.247-49.595-0.18-18.576 16.411-37.151 33.184-56.087 50.136-2.525-2.164-4.689-3.968-6.853-5.951-73.581-69.072-147.162-137.964-220.743-207.036-20.74-19.297-51.759-11.903-58.973 14.428-3.968 14.608 0.721 26.871 11.903 37.331 45.627 42.561 91.074 85.484 136.702 128.225 26.871 25.248 53.563 50.316 80.434 75.565 1.443 1.443 2.886 3.066 4.689 5.050-22.363 20.199-44.545 40.037-66.728 59.875-52.3 46.89-104.781 93.779-157.081 140.85-11.542 10.46-15.69 23.265-11.001 38.053 4.509 14.247 14.969 22.182 29.757 23.806 11.181 1.262 20.379-3.246 28.675-10.64 61.858-55.727 123.897-111.273 185.936-167 40.578-36.79 81.516-73.761 123.356-111.093z" />
<glyph unicode="&#xe918;" glyph-name="upload" horiz-adv-x="986" d="M636.077 521.581c0-4.328 0-7.574 0-10.821 0-84.582 0-169.164 0-253.746 0-23.265-9.017-32.462-32.101-32.462-73.581 0-147.342 0-220.923 0-4.148 0-8.296 0.18-12.263 1.082-13.526 3.066-18.936 13.165-19.477 29.577-0.902 36.971-0.361 73.942-0.361 110.912 0 48.152 0 96.304 0 144.456 0 3.246 0 6.492 0 10.821-3.968 0-7.214 0-10.46 0-38.053 0-76.106-0.18-114.159 0-18.756 0-30.839 13.165-27.773 30.118 0.721 4.148 3.246 8.116 5.771 11.542 15.87 21.281 31.921 42.381 47.791 63.662 23.265 31.38 46.529 62.76 69.794 94.321 21.461 29.036 42.922 58.071 64.203 87.107 22.002 29.757 43.824 59.334 65.646 89.091 6.853 9.378 13.346 19.297 20.379 28.675 10.28 14.067 30.298 14.608 40.758 0.721 27.232-36.069 53.923-72.318 80.795-108.568 20.559-27.593 40.938-55.366 61.498-82.959 22.543-30.478 45.267-60.957 67.81-91.615 19.658-26.511 39.135-53.202 59.153-79.713 6.312-8.296 8.837-16.772 4.509-26.691-4.869-11.001-13.346-15.87-25.429-15.87-38.414 0.18-76.647 0-115.060 0-2.705 0.361-5.951 0.361-10.099 0.361zM90.894 59.536c268.534 0 536.707 0 805.422 0 0-36.069 0-71.958 0-108.207-268.354 0-536.707 0-805.422 0 0 35.889 0 71.777 0 108.207z" />
<glyph unicode="&#xe919;" glyph-name="video" horiz-adv-x="986" d="M688.919 187.762c0-12.624 1.082-24.347-0.18-35.708-5.23-44.185-39.856-74.483-84.582-74.483-56.809 0-113.617 0-170.426 0-109.83 0-219.66 0-329.491 0-42.922 0-77.007 29.036-84.041 71.056-0.721 4.509-0.902 9.198-0.902 13.706 0 127.324-0.18 254.828 0 382.151 0 34.626 16.051 60.055 46.89 75.384 7.574 3.787 16.952 5.951 25.609 5.951 162.852 1.262 325.703 2.344 488.375 3.066 14.247 0 29.036 1.082 42.922-1.984 38.594-8.657 60.596-36.971 64.924-67.449 1.803-12.985 1.443-26.33 2.164-40.578 7.935 0 15.87 0 23.986 0 15.69 0 31.38-0.361 47.070 0.18 4.509 0.18 9.558 1.623 13.346 3.968 50.857 33.184 101.715 66.728 152.572 100.092 17.854 11.722 38.955 4.509 44.185-14.788 0.902-3.066 0.902-6.492 0.902-9.558 0-163.573 0-327.327 0.18-490.9 0-11.903-4.148-21.281-14.788-26.871-10.46-5.771-20.74-4.148-30.659 2.344-50.677 33.544-101.534 66.908-152.392 100.272-3.787 2.525-8.837 3.968-13.346 3.968-23.445 0.361-47.070 0.18-72.318 0.18zM248.335 353.499c0-35.708 0.18-71.417 0-107.125 0-12.083 3.787-21.822 14.788-27.593 10.821-5.951 21.1-3.968 31.2 2.705 54.104 35.708 108.207 71.236 162.311 107.125 20.559 13.526 20.379 35.889-0.18 49.415-53.923 35.528-107.846 70.876-161.77 106.584-10.28 6.853-20.74 9.017-31.921 2.886-10.821-5.951-14.608-15.69-14.428-27.773 0.18-35.348 0-70.876 0-106.223zM748.072 243.128c0 73.761 0 146.801 0 220.021-19.838 0-38.774 0-58.071 0 0-73.581 0-146.621 0-220.021 19.658 0 38.594 0 58.071 0zM354.559 754.948c-9.739-77.909-81.155-121.012-143.915-111.994-65.646 9.378-111.994 62.58-111.453 126.061 0.541 60.957 47.972 114.159 107.305 123.356 64.564 9.919 138.144-32.823 148.063-112.535 8.296 71.597 70.154 118.126 136.161 113.617 65.646-4.509 117.044-58.251 118.306-123.717 1.262-64.744-48.152-120.471-113.617-127.143-67.629-7.033-131.291 38.955-140.85 112.355z" />
<glyph unicode="&#xe91a;" glyph-name="gallery" horiz-adv-x="986" d="M31.019 563.241c0 93.779 0 187.379 0 281.158 0 42.201 29.396 76.827 70.695 83.5 4.328 0.721 8.657 0.721 12.985 0.721 178.181 0 356.362 0 534.543 0 46.89 0 83.5-35.708 84.762-82.598 0.18-6.853 0-13.706 0-20.379 0-180.706 0-361.231 0-541.937 0-38.774-20.92-70.876-54.825-82.959-8.837-3.066-18.576-4.869-27.954-4.869-179.263-0.361-358.526-0.361-537.789-0.18-46.168 0-82.418 37.331-82.418 84.582 0 94.321 0 188.641 0 282.962zM815.701 695.975c25.429 0 50.136 2.344 74.302-0.541 38.594-4.689 67.629-41.299 68.17-81.155 0.18-17.493 0-34.807 0-52.3 0-170.787 0-341.754 0-512.541 0-43.283-28.675-77.729-70.154-84.762-4.869-0.721-9.739-0.721-14.608-0.721-177.099 0-354.198 0-531.297 0-46.349 0-81.155 29.396-86.025 75.745-2.344 23.084-0.361 46.709-0.361 71.236 3.607 0 7.033 0 10.46 0 126.963 0 253.926 1.082 380.889-0.361 88.369-0.902 160.327 69.433 167.541 154.375 0.721 7.935 1.082 15.69 1.082 23.625 0 132.193 0 264.386 0 396.399 0 3.427 0 7.033 0 11.001z" />
<glyph unicode="&#xe91b;" glyph-name="tag" horiz-adv-x="986" d="M488.916 207.239c-29.036-26.15-57.53-51.759-86.025-77.548-63.482-57.169-126.783-114.159-190.264-171.328-12.263-11.001-25.97-13.526-39.315-7.033-10.28 5.050-16.051 13.346-16.411 25.068 0 1.984 0 3.968 0 5.951 0 309.112 0 618.223 0 927.515 0 23.084 11.542 34.626 34.446 34.626 198.199 0 396.399 0 594.778 0 23.084 0 34.626-11.542 34.626-34.626 0-308.931 0-617.682 0.18-926.614 0-13.526-1.984-25.429-15.69-31.2-14.428-5.951-28.314-4.509-40.397 6.492-62.94 56.809-125.881 113.437-188.821 170.246-28.855 25.97-57.53 51.939-87.107 78.45zM220.382 45.65c2.886 2.344 4.689 3.787 6.312 5.23 78.631 70.695 157.261 141.571 235.892 212.266 18.395 16.592 34.266 16.772 52.661 0.18 78.631-70.876 157.261-141.571 235.892-212.266 1.803-1.623 3.787-3.066 6.312-5.050 0 280.978 0 561.054 0 841.13-179.263 0-357.805 0-536.888 0-0.18-280.256-0.18-560.152-0.18-841.491z" />
<glyph unicode="&#xe91c;" glyph-name="tag-check" horiz-adv-x="986" d="M757.45 887.141c0-280.076 0-560.152 0-841.13-2.525 1.984-4.509 3.427-6.312 5.050-78.631 70.695-157.261 141.391-235.892 212.266-18.395 16.592-34.266 16.411-52.661-0.18-78.631-70.695-157.261-141.571-235.892-212.266-1.623-1.443-3.427-2.886-6.312-5.23 0 281.338 0 561.234 0.18 841.491 179.083 0 357.625 0 536.888 0zM820.751 909.864c0-308.931 0-617.682 0.18-926.614 0-13.526-1.984-25.429-15.69-31.2-14.428-5.951-28.314-4.509-40.397 6.492-62.94 56.809-125.881 113.437-188.821 170.246-28.855 25.97-57.53 51.939-87.107 78.45-29.036-26.15-57.53-51.759-86.025-77.548-63.482-57.169-126.783-114.159-190.264-171.328-12.263-11.001-25.97-13.526-39.315-7.033-10.28 5.050-16.051 13.346-16.411 25.068 0 1.984 0 3.968 0 5.951 0 309.112 0 618.223 0 927.515 0 23.084 11.542 34.626 34.446 34.626 198.199 0 396.399 0 594.778 0 23.084 0 34.626-11.542 34.626-34.626zM757.45 46.011c0 280.978 0 561.054 0 841.13-179.263 0-357.805 0-536.888 0-0.18-280.256-0.18-560.152-0.18-841.491 2.886 2.344 4.689 3.787 6.312 5.23 78.631 70.695 157.261 141.571 235.892 212.266 18.395 16.592 34.266 16.772 52.661 0.18 78.631-70.876 157.261-141.571 235.892-212.266 1.803-1.623 3.787-3.066 6.312-5.050z" />
<glyph unicode="&#xe91d;" glyph-name="upload-mobile" horiz-adv-x="986" d="M732.382 103.901c0 17.313 0 33.544 0 50.857 4.148 0 7.755 0 11.542 0 24.707 0.541 49.775-1.623 74.122 1.984 62.219 9.378 104.781 60.055 106.404 123.176 0 1.803 0 3.787 0 5.591 0 125.34 0 250.68 0 376.020 0 56.809-30.839 102.977-80.975 122.454-15.51 5.951-31.56 8.476-48.152 8.476-201.806 0-403.432 0.18-605.238 0-64.203 0-114.339-41.479-126.422-103.879-1.623-8.657-2.164-17.674-2.164-26.511-0.18-125.701-0.18-251.221 0-376.921 0-62.94 38.414-113.076 97.386-126.963 10.821-2.525 22.363-3.066 33.544-3.427 20.199-0.541 40.217-0.18 60.957-0.18 0-17.133 0-33.725 0-50.857-44.365 1.623-88.91-4.869-131.832 12.624-65.646 26.871-110.371 91.255-110.552 162.13-0.18 129.849-0.361 259.877 0 389.726 0.18 96.304 79.172 174.754 175.656 174.754 204.151 0 408.302 0.18 612.452 0 95.944 0 174.935-78.45 175.296-174.213 0.361-130.209 0.361-260.418 0-390.628-0.18-95.403-78.991-173.672-174.574-174.213-21.822 0-44.185 0-67.449 0zM518.673 374.239c0-3.066 0-6.312 0-9.378 0-95.222 0-190.445 0-285.667 0-16.772-6.492-26.511-19.477-30.659-16.231-4.869-33.003 6.312-34.626 23.084-0.361 3.246-0.18 6.492-0.18 9.739 0 93.779 0 187.739 0 281.519 0 2.886 0 5.771 0 8.476-1.082 0.902-2.344 1.623-3.427 2.525-1.443-2.525-2.164-5.771-4.148-7.755-27.773-28.134-55.727-56.087-83.5-84.221-6.853-6.853-14.608-11.001-24.527-9.558-10.821 1.443-18.395 7.394-22.182 17.674-3.968 10.821-1.623 20.74 6.312 29.036 15.51 16.051 31.38 31.741 47.25 47.611 30.298 30.478 60.776 60.957 91.074 91.435 14.067 14.067 29.937 14.247 43.824 0.361 45.808-45.808 91.435-91.796 137.243-137.784 8.476-8.476 11.903-18.576 7.935-30.118-3.787-10.64-11.542-16.592-22.723-18.035-9.919-1.262-17.674 3.066-24.347 9.919-27.593 27.954-55.366 55.727-82.959 83.5-3.066 3.066-5.771 6.312-8.657 9.378-1.262-0.361-1.984-0.721-2.886-1.082z" />
<glyph unicode="&#xe91e;" glyph-name="favorite-check" d="M512 28.667l-62 56c-220 200-364 330-364 492 0 132 102 234 234 234 74 0 146-36 192-90 46 54 118 90 192 90 132 0 234-102 234-234 0-162-144-294-364-494z" />
<glyph unicode="&#xe91f;" glyph-name="home" horiz-adv-x="986" d="M169.164 67.832c66.187 0 130.931 0 197.298 0 0 6.492 0 12.805 0 18.936 0 62.219-0.18 124.258 0.541 186.477 0.18 16.051 1.082 32.642 5.591 47.791 15.329 50.677 53.021 77.368 102.977 86.205 66.547 11.722 132.013-35.528 142.653-101.895 3.427-21.641 2.344-44.185 2.525-66.367 0.361-53.923 0.18-107.846 0.18-161.77 0-2.886 0-5.951 0-9.198 65.826 0 130.931 0 197.298 0 0 2.886 0 6.132 0 9.198 0 123.536 0 246.893 0 370.429 0 5.23-0.18 10.46 0.361 15.51 1.262 16.231 11.722 26.15 27.052 26.15 14.608 0 25.248-9.919 26.871-25.609 0.361-3.787 0.361-7.574 0.361-11.542 0-130.57 0-261.14 0-391.89 0-9.198-0.721-18.576-1.984-27.773-1.443-10.099-8.296-15.69-18.035-17.674-5.41-1.082-10.821-1.623-16.231-1.623-78.811-0.18-157.622 0-236.613 0-2.705 0-5.41 0-8.116 0.361-15.329 1.984-21.641 8.296-23.625 23.625-0.541 4.869-0.902 9.739-0.902 14.788-0.18 76.106 0.18 152.211-0.361 228.317-0.18 40.037-25.068 67.449-64.564 73.581-41.66 6.312-80.975-25.789-81.696-67.81-0.721-55.546-0.18-111.093-0.541-166.819-0.18-27.052 0-54.284-1.082-81.336-0.721-15.69-7.394-21.641-22.904-23.986-4.509-0.721-9.198-0.721-13.887-0.721-77.007 0-153.834 0-230.842 0-2.525 0-4.869 0-7.394 0.18-19.477 1.082-28.314 9.739-29.216 29.216-0.18 3.787-0.18 7.574-0.18 11.542 0 132.013 0 264.025 0.18 395.858 0 7.033 0.541 14.247 2.525 21.1 3.427 12.083 13.346 18.756 25.068 18.576 11.903-0.18 21.1-6.853 24.347-19.297 1.803-6.853 2.344-14.067 2.344-21.1 0.18-123.717 0.18-247.434 0.18-371.331-0.18-3.246-0.18-6.492-0.18-10.099zM493.424 813.74c-35.528-25.789-70.695-51.398-105.863-77.007-108.387-78.811-216.955-157.802-325.523-236.433-6.132-4.509-12.985-8.657-20.018-10.64-5.41-1.443-12.805-0.721-17.854 1.984-19.117 10.46-19.297 31.56-0.361 46.168 22.543 17.313 45.447 34.266 68.531 51.038 123.717 89.992 247.434 179.985 371.15 269.977 28.314 20.559 31.921 20.559 60.416-0.18 142.473-103.698 285.126-207.397 427.418-311.276 7.755-5.591 15.149-11.903 21.461-18.936 8.657-9.919 8.476-19.838 0.902-29.937-7.755-10.64-17.493-14.247-29.396-9.198-8.296 3.427-16.051 8.116-23.265 13.526-111.093 80.614-222.005 161.589-333.098 242.564-28.314 20.559-56.628 41.299-84.943 61.858-3.066 2.164-6.132 4.328-9.558 6.492z" />
<glyph unicode="&#xe920;" glyph-name="close" d="M626.784 447.968l195.072-195.072c12.672-12.672 12.672-33.248 0-45.92l-68.832-68.832c-12.672-12.672-33.216-12.672-45.92 0l-195.104 195.072-195.104-195.072c-12.672-12.672-33.216-12.672-45.888 0l-68.864 68.832c-12.672 12.672-12.672 33.216 0 45.92l195.104 195.072-195.104 195.104c-12.672 12.672-12.672 33.248 0 45.92l68.896 68.832c12.672 12.672 33.216 12.672 45.888 0l195.072-195.104 195.104 195.104c12.672 12.672 33.216 12.672 45.92 0l68.832-68.864c12.672-12.672 12.672-33.216 0-45.92l-195.072-195.072z" />
<glyph unicode="&#xe923;" glyph-name="dots" d="M269.824 441.344c0-59.947-48.597-108.544-108.544-108.544s-108.544 48.597-108.544 108.544c0 59.947 48.597 108.544 108.544 108.544s108.544-48.597 108.544-108.544zM622.592 441.344c0-59.947-48.597-108.544-108.544-108.544s-108.544 48.597-108.544 108.544c0 59.947 48.597 108.544 108.544 108.544s108.544-48.597 108.544-108.544zM975.36 441.344c0-59.947-48.597-108.544-108.544-108.544s-108.544 48.597-108.544 108.544c0 59.947 48.597 108.544 108.544 108.544s108.544-48.597 108.544-108.544z" />
<glyph unicode="&#xe924;" glyph-name="user" horiz-adv-x="986" d="M484.948 893.813c58.251-1.082 108.568-8.476 157.622-24.888 123.717-41.299 215.693-119.749 274.846-235.892 23.986-46.89 38.233-97.206 42.381-149.687 1.803-23.445 3.607-47.070 2.164-70.335-2.164-32.282-7.755-64.203-16.952-95.583-16.231-55.907-42.201-106.764-78.27-152.211-51.759-65.285-116.503-113.617-193.871-144.637-43.103-17.313-87.648-28.675-133.996-32.282-25.429-1.984-51.218-3.787-76.647-1.984-40.758 2.886-80.975 10.28-120.11 23.084-82.237 26.871-151.851 72.679-209.2 137.243-35.708 40.217-63.121 85.484-82.237 135.98-14.067 37.151-23.806 75.565-26.691 115.241-1.623 23.625-3.607 47.611-1.803 71.056 2.344 31.019 7.755 61.678 16.592 91.615 26.691 91.976 78.27 167 152.031 227.235 43.283 35.348 91.976 61.678 144.817 79.713 35.528 12.083 72.138 20.199 109.65 23.265 15.329 1.262 30.839 2.344 39.676 3.066zM522.28 378.747c0 0.721 0 1.443-0.18 2.164 1.262 0.361 2.344 0.902 3.607 1.262 17.674 2.886 33.905 9.198 49.415 17.854 63.121 35.167 95.583 106.584 78.27 175.476-13.526 53.923-47.791 91.435-99.010 111.453-52.3 20.559-104.059 15.69-152.572-13.706-68.712-41.66-95.763-130.209-61.137-201.085 22.182-45.086 57.891-74.483 106.404-87.648 4.869-1.262 9.558-2.525 16.051-4.328-2.705-1.262-3.607-1.984-4.689-2.164-3.066-0.721-6.132-1.262-9.378-1.623-41.119-4.689-79.893-16.772-116.323-36.069-68.892-36.79-118.847-90.894-149.506-162.852-1.082-2.525 0-7.755 1.984-9.558 19.658-17.674 38.594-36.249 59.694-51.759 58.251-42.381 123.897-66.728 195.494-75.384 38.594-4.689 77.007-4.148 115.241 1.623 33.905 5.050 66.908 14.067 98.829 27.232 54.645 22.723 102.436 55.186 143.194 98.288 1.984 2.164 2.886 7.574 1.623 10.28-21.1 50.316-52.841 92.878-95.583 126.963-49.234 39.135-104.781 63.301-167.36 70.876-4.328 0.902-9.198 1.984-14.067 2.705z" />
<glyph unicode="&#xe927;" glyph-name="book" d="M430.080 712.704c-66.048 57.344-145.408 73.216-229.376 76.288-29.184 1.536-40.96-11.776-40.96-40.96 0-158.72 0-317.44 0-476.16 0-30.72 11.776-40.96 42.496-42.496s60.416-3.072 89.6-8.704c73.728-13.312 139.776-44.032 194.048-98.304 1.536 4.608 1.536 5.632 1.536 5.632 0 168.96 0 336.384 0 504.32 0 8.704-3.072 18.944-7.168 25.088-16.384 18.432-31.232 38.912-50.176 55.296zM825.344 231.936c28.16 0 40.96 11.776 40.96 39.936 0 160.256 0 322.048 0 482.304 0 26.624-11.776 39.936-38.4 38.4-25.088-1.536-50.176-3.072-73.728-7.168-80.896-14.848-151.552-47.104-201.216-114.688-10.24-14.848-14.848-29.184-14.848-47.104 0-160.256 0-320.512 0-480.768 0-5.632 0-11.776 0-16.384 29.184 20.48 55.808 40.96 85.504 58.88 63.488 33.28 131.072 45.056 201.728 46.592zM422.4 110.080c-64.512 48.64-136.704 64.512-214.528 67.584-67.584 1.536-98.304 32.256-98.304 98.304 0 126.464 0 251.392 0 376.32 0 7.168 0 13.312 0 20.48-39.936 5.632-57.344-4.608-55.808-35.328 0-172.032 0-342.528 0-513.024 0-29.184 16.384-42.496 45.568-36.864 85.504 18.944 173.568 28.16 261.632 18.944 25.088-3.072 50.176-7.168 74.752-10.24-1.536 1.536-1.536 3.072-3.072 4.608-2.56 3.072-5.632 6.144-10.24 9.216zM916.48 674.304c0-5.632 0-13.312 0-20.48 0-126.464 0-251.392 0-377.856 0-10.24 0-22.016-3.072-32.256-8.704-40.96-42.496-62.976-91.136-64.512-54.272-1.536-107.52-10.24-155.648-32.256-26.624-11.776-51.2-29.184-77.824-44.032 1.536-1.536 1.536-4.608 3.072-4.608 25.088 3.072 48.64 7.168 73.728 10.24 86.528 8.704 172.032 0 257.024-17.408 36.864-7.168 51.2 4.608 51.2 44.032 0 164.864 0 329.216 0 494.080 0 40.96-13.312 52.736-57.344 45.056z" />
<glyph unicode="&#xe92e;" glyph-name="error" d="M513.024 854.528c-224.768 0-408.064-182.784-408.064-408.064s182.784-408.064 408.064-408.064 408.064 182.784 408.064 408.064-183.296 408.064-408.064 408.064zM513.024 90.624c-196.608 0-356.352 159.744-356.352 356.352s159.744 356.352 356.352 356.352 356.352-159.744 356.352-356.352-159.744-356.352-356.352-356.352zM524.8 660.992h-23.040c-13.312 0-24.576-10.752-24.576-24.576l7.68-281.6c0-13.312 10.752-24.576 24.576-24.576h7.68c13.312 0 24.576 10.752 24.576 24.576l7.68 282.112c-0.512 12.8-11.264 24.064-24.576 24.064zM547.84 267.264c0-19.228-15.588-34.816-34.816-34.816s-34.816 15.588-34.816 34.816c0 19.228 15.588 34.816 34.816 34.816s34.816-15.588 34.816-34.816z" />
<glyph unicode="&#xe936;" glyph-name="arrow-left" d="M384.512 445.952l321.024 321.024c5.632 5.632 8.192 11.776 8.192 18.944s-2.56 13.312-8.192 18.944l-40.96 40.96c-5.632 5.632-11.776 8.192-18.944 8.192s-13.312-2.56-18.944-8.192l-379.904-380.928c-5.632-5.632-8.192-11.776-8.192-18.944s2.56-13.312 8.192-18.944l380.416-380.416c5.632-5.632 11.776-8.192 18.944-8.192s13.312 2.56 18.944 8.192l40.96 40.96c5.632 5.632 8.192 11.776 8.192 18.944s-2.56 13.312-8.192 18.944l-321.536 320.512z" />
<glyph unicode="&#xe937;" glyph-name="arrow-right" d="M654.336 445.952l-320.512-320.512c-5.632-5.632-8.192-11.776-8.192-18.944s2.56-13.312 8.192-18.944l40.96-40.96c5.632-5.632 11.776-8.192 18.944-8.192s13.312 2.56 18.944 8.192l380.416 380.416c5.632 5.632 8.192 11.776 8.192 18.944s-2.56 13.312-8.192 18.944l-380.928 380.416c-5.632 5.632-11.776 8.192-18.944 8.192s-13.312-2.56-18.944-8.192l-40.96-40.96c-5.632-5.632-8.192-11.776-8.192-18.944s2.56-13.312 8.192-18.944l321.024-320.512z" />
<glyph unicode="&#xe93c;" glyph-name="arrow-bottom2" d="M956.928 667.648c-11.264 11.264-25.088 16.896-40.448 16.896h-805.376c-15.36 0-29.184-5.632-40.448-16.896s-16.896-25.088-16.896-40.448c0-15.36 5.632-29.184 16.896-40.448l402.432-402.432c11.264-11.264 25.088-16.896 40.448-16.896s29.184 5.632 40.448 16.896l402.432 402.432c11.264 11.264 16.896 25.088 16.896 40.448 1.024 15.872-5.12 29.184-16.384 40.448z" />
<glyph unicode="&#xea8b;" glyph-name="google-plus" d="M325.8 502.6v-111.8h184.8c-7.4-48-55.8-140.6-184.8-140.6-111.2 0-202 92.2-202 205.8s90.8 205.8 202 205.8c63.4 0 105.6-27 129.8-50.2l88.4 85.2c-56.8 53-130.4 85.2-218.2 85.2-180.2-0.2-325.8-145.8-325.8-326s145.6-325.8 325.8-325.8c188 0 312.8 132.2 312.8 318.4 0 21.4-2.4 37.8-5.2 54h-307.6zM1024 512h-96v96h-96v-96h-96v-96h96v-96h96v96h96z" />
<glyph unicode="&#xea90;" glyph-name="facebook" d="M608 768h160v192h-160c-123.514 0-224-100.486-224-224v-96h-128v-192h128v-512h192v512h160l32 192h-192v96c0 17.346 14.654 32 32 32z" />
<glyph unicode="&#xea92;" glyph-name="instagram" d="M512 867.8c136.8 0 153-0.6 206.8-3 50-2.2 77-10.6 95-17.6 23.8-9.2 41-20.4 58.8-38.2 18-18 29-35 38.4-58.8 7-18 15.4-45.2 17.6-95 2.4-54 3-70.2 3-206.8s-0.6-153-3-206.8c-2.2-50-10.6-77-17.6-95-9.2-23.8-20.4-41-38.2-58.8-18-18-35-29-58.8-38.4-18-7-45.2-15.4-95-17.6-54-2.4-70.2-3-206.8-3s-153 0.6-206.8 3c-50 2.2-77 10.6-95 17.6-23.8 9.2-41 20.4-58.8 38.2-18 18-29 35-38.4 58.8-7 18-15.4 45.2-17.6 95-2.4 54-3 70.2-3 206.8s0.6 153 3 206.8c2.2 50 10.6 77 17.6 95 9.2 23.8 20.4 41 38.2 58.8 18 18 35 29 58.8 38.4 18 7 45.2 15.4 95 17.6 53.8 2.4 70 3 206.8 3zM512 960c-139 0-156.4-0.6-211-3-54.4-2.4-91.8-11.2-124.2-23.8-33.8-13.2-62.4-30.6-90.8-59.2-28.6-28.4-46-57-59.2-90.6-12.6-32.6-21.4-69.8-23.8-124.2-2.4-54.8-3-72.2-3-211.2s0.6-156.4 3-211c2.4-54.4 11.2-91.8 23.8-124.2 13.2-33.8 30.6-62.4 59.2-90.8 28.4-28.4 57-46 90.6-59 32.6-12.6 69.8-21.4 124.2-23.8 54.6-2.4 72-3 211-3s156.4 0.6 211 3c54.4 2.4 91.8 11.2 124.2 23.8 33.6 13 62.2 30.6 90.6 59s46 57 59 90.6c12.6 32.6 21.4 69.8 23.8 124.2 2.4 54.6 3 72 3 211s-0.6 156.4-3 211c-2.4 54.4-11.2 91.8-23.8 124.2-12.6 34-30 62.6-58.6 91-28.4 28.4-57 46-90.6 59-32.6 12.6-69.8 21.4-124.2 23.8-54.8 2.6-72.2 3.2-211.2 3.2v0zM512 711c-145.2 0-263-117.8-263-263s117.8-263 263-263 263 117.8 263 263c0 145.2-117.8 263-263 263zM512 277.4c-94.2 0-170.6 76.4-170.6 170.6s76.4 170.6 170.6 170.6c94.2 0 170.6-76.4 170.6-170.6s-76.4-170.6-170.6-170.6zM846.8 721.4c0-33.91-27.49-61.4-61.4-61.4s-61.4 27.49-61.4 61.4c0 33.91 27.49 61.4 61.4 61.4s61.4-27.49 61.4-61.4z" />
<glyph unicode="&#xea96;" glyph-name="twitter" d="M1024 733.6c-37.6-16.8-78.2-28-120.6-33 43.4 26 76.6 67.2 92.4 116.2-40.6-24-85.6-41.6-133.4-51-38.4 40.8-93 66.2-153.4 66.2-116 0-210-94-210-210 0-16.4 1.8-32.4 5.4-47.8-174.6 8.8-329.4 92.4-433 219.6-18-31-28.4-67.2-28.4-105.6 0-72.8 37-137.2 93.4-174.8-34.4 1-66.8 10.6-95.2 26.2 0-0.8 0-1.8 0-2.6 0-101.8 72.4-186.8 168.6-206-17.6-4.8-36.2-7.4-55.4-7.4-13.6 0-26.6 1.4-39.6 3.8 26.8-83.4 104.4-144.2 196.2-146-72-56.4-162.4-90-261-90-17 0-33.6 1-50.2 3 93.2-59.8 203.6-94.4 322.2-94.4 386.4 0 597.8 320.2 597.8 597.8 0 9.2-0.2 18.2-0.6 27.2 41 29.4 76.6 66.4 104.8 108.6z" />
<glyph unicode="&#xea9d;" glyph-name="youtube" d="M1013.8 652.8c0 0-10 70.6-40.8 101.6-39 40.8-82.6 41-102.6 43.4-143.2 10.4-358.2 10.4-358.2 10.4h-0.4c0 0-215 0-358.2-10.4-20-2.4-63.6-2.6-102.6-43.4-30.8-31-40.6-101.6-40.6-101.6s-10.2-82.8-10.2-165.8v-77.6c0-82.8 10.2-165.8 10.2-165.8s10-70.6 40.6-101.6c39-40.8 90.2-39.4 113-43.8 82-7.8 348.2-10.2 348.2-10.2s215.2 0.4 358.4 10.6c20 2.4 63.6 2.6 102.6 43.4 30.8 31 40.8 101.6 40.8 101.6s10.2 82.8 10.2 165.8v77.6c-0.2 82.8-10.4 165.8-10.4 165.8zM406.2 315.2v287.8l276.6-144.4-276.6-143.4z" />
<glyph unicode="&#xeaa7;" glyph-name="dribbble" d="M512-64c-282.4 0-512 229.6-512 512s229.6 512 512 512c282.4 0 512-229.6 512-512s-229.6-512-512-512v0zM943.8 378c-15 4.8-135.4 40.6-272.4 18.6 57.2-157.2 80.4-285.2 85-311.8 98 66.4 168 171.4 187.4 293.2v0zM682.8 44.8c-6.6 38.4-31.8 172-93.2 331.6-1-0.4-2-0.6-2.8-1-246.8-86-335.4-257-343.2-273 74.2-57.8 167.4-92.4 268.4-92.4 60.6 0 118.4 12.4 170.8 34.8v0zM187 155c10 17 130 215.6 355.4 288.6 5.6 1.8 11.4 3.6 17.2 5.2-11 24.8-23 49.8-35.4 74.2-218.2-65.4-430.2-62.6-449.4-62.4-0.2-4.4-0.2-8.8-0.2-13.4 0-112.2 42.6-214.8 112.4-292.2v0zM84 537c19.6-0.2 199.8-1 404.4 53.2-72.4 128.8-150.6 237.2-162.2 253-122.4-57.8-214-170.6-242.2-306.2v0zM409.6 872.6c12-16.2 91.6-124.4 163.2-256 155.6 58.2 221.4 146.8 229.2 158-77.2 68.6-178.8 110.2-290 110.2-35.2-0.2-69.6-4.4-102.4-12.2v0zM850.6 723.8c-9.2-12.4-82.6-106.4-244.2-172.4 10.2-20.8 20-42 29-63.4 3.2-7.6 6.4-15 9.4-22.6 145.6 18.2 290.2-11 304.6-14-1 103.2-38 198-98.8 272.4v0z" />
<glyph unicode="&#xeaca;" glyph-name="linkedin" d="M384 576h177.106v-90.782h2.532c24.64 44.194 84.958 90.782 174.842 90.782 186.946 0 221.52-116.376 221.52-267.734v-308.266h-184.61v273.278c0 65.184-1.334 149.026-96.028 149.026-96.148 0-110.82-70.986-110.82-144.292v-278.012h-184.542v576zM64 576h192v-576h-192v576zM256 736c0-53.019-42.981-96-96-96s-96 42.981-96 96c0 53.019 42.981 96 96 96s96-42.981 96-96z" />
<glyph unicode="&#xead2;" glyph-name="pinterest" d="M512 960c-282.4 0-512-229.6-512-512s229.6-512 512-512 512 229.6 512 512-229.6 512-512 512zM512 4.4c-45.8 0-89.8 7-131.4 19.8 18 29.4 45.2 77.8 55.2 116.2 5.4 20.8 27.6 105.4 27.6 105.4 14.4-27.6 56.8-51 101.6-51 133.8 0 230.2 123 230.2 276 0 146.6-119.6 256.2-273.4 256.2-191.4 0-293-128.6-293-268.4 0-65 34.6-146 90-171.8 8.4-4 12.8-2.2 14.8 6 1.4 6.2 9 36.2 12.4 50.4 1 4.4 0.6 8.4-3 12.8-18.4 22.2-33 63.2-33 101.2 0 97.8 74 192.6 200.2 192.6 109 0 185.2-74.2 185.2-180.4 0-120-60.6-203.2-139.4-203.2-43.6 0-76.2 36-65.6 80.2 12.6 52.8 36.8 109.6 36.8 147.6 0 34-18.2 62.4-56.2 62.4-44.6 0-80.2-46-80.2-107.8 0-39.2 13.2-65.8 13.2-65.8s-44-185.8-52-220.4c-9-38.4-5.4-92.2-1.6-127.2-165 64.4-282 224.8-282 412.8 0 245 198.6 443.6 443.6 443.6s443.6-198.6 443.6-443.6c0-245-198.6-443.6-443.6-443.6z" />
</font>
</defs>
</svg>
