<?xml version="1.0" encoding="utf-8"?>
<!-- Generator: Adobe Illustrator 21.1.0, SVG Export Plug-In . SVG Version: 6.00 Build 0)  -->
<svg version="1.1" id="Capa_1" xmlns="http://www.w3.org/2000/svg" xmlns:xlink="http://www.w3.org/1999/xlink" x="0px" y="0px"
	 viewBox="0 0 256 225" style="enable-background:new 0 0 256 225;" xml:space="preserve">
<g>
	<path d="M128,220.8c-19.5,0-39-0.1-58.5,0.1c-3.3,0-5-0.9-6.7-3.8C43.5,183.5,24,149.9,4.4,116.4c-1.7-3-1.6-5.1,0.1-8
		c19.6-33.5,39-67,58.4-100.6c1.5-2.6,3.2-3.6,6.2-3.6c39.2,0.1,78.3,0.1,117.5,0c3,0,4.7,0.9,6.3,3.6c19.5,33.7,39,67.4,58.7,101.1
		c1.5,2.5,1.8,4.4,0.2,7.2c-19.8,33.8-39.4,67.6-58.9,101.5c-1.6,2.7-3.4,3.4-6.4,3.4C167,220.7,147.5,220.8,128,220.8z
		 M127.7,211.7c17.7,0,35.3-0.1,53,0.1c3.3,0,5.4-0.8,7.2-3.9c17.7-30.7,35.5-61.4,53.4-92c1.5-2.5,1.3-4.3-0.1-6.8
		c-17.9-30.6-35.7-61.3-53.4-92c-1.5-2.6-3.1-3.8-6.2-3.8c-35.7,0.1-71.3,0.1-107,0c-3.1,0-4.8,1.1-6.3,3.7
		c-17.7,30.7-35.5,61.4-53.4,92c-1.6,2.7-1.4,4.6,0.1,7.2c17.8,30.5,35.5,61,53.1,91.6c1.7,3,3.8,4,7.2,4
		C92.7,211.6,110.2,211.7,127.7,211.7z"/>
	<path d="M127.8,166.8c-14.5,0-29,0-43.5,0c-7.5,0-12.1-4.6-12.1-11.9c0-27.5,0-55,0-82.4c0-7.1,4.9-12.1,12-12.5c1,0,2,0,3,0
		c9.9,0,9.9,0,10.5,9.6c0.3,4.7,3.2,7.7,7.9,8c4.8,0.3,8.2-2,9.2-6.5c0.2-1,0.3-2,0.4-3c0.4-8.1,0.4-8.1,8.4-8.1
		c4.2,0,8.3,0.2,12.5-0.1c3.6-0.2,4.8,1.3,4.5,4.7c-0.1,1.5-0.1,3,0,4.5c0.3,5.4,3.4,8.4,8.5,8.5c5.4,0.1,8.6-3,9-8.6
		c0.7-9.1,0.7-9.1,10-9c11.3,0,15.7,4.4,15.7,15.5c0,26.1,0,52.3,0,78.4c0,8-4.9,12.8-13,12.8C156.5,166.8,142.1,166.8,127.8,166.8z
		 M176.4,90.8c-2.4,0-4.2,0-6,0c-13,0-26,0-39,0c-15.8,0-31.7,0-47.5,0c-2.3,0-4.9-0.6-4.8,3.2c0.1,19.7,0,39.3,0.1,59
		c0,3.8,2.3,6.3,6.3,6.3c28.2,0,56.3,0,84.5,0c4,0,6.4-2.3,6.4-6.2C176.5,132.6,176.4,112.1,176.4,90.8z"/>
	<path d="M143.2,58.6c0-3.1,0-6.3,0-9.4c0-3.4,1.3-5.6,5.1-5.9c3.9-0.3,6.9,1.1,7.1,5c0.4,7.1,0.4,14.3,0,21.4
		c-0.2,3.4-2.6,5.7-6.4,5.5c-3.8-0.2-5.7-2.3-5.8-6.1C143.1,65.5,143.2,62,143.2,58.6z"/>
	<path d="M112.5,59.2c0,3.3,0.2,6.6-0.1,9.9c-0.3,3.7-2.3,6.3-6.5,5.9c-4-0.3-5.8-2.7-5.9-6.6c0-6.3-0.1-12.6,0-18.9
		c0-3.8,1.5-6.1,5.8-6.4c4.6-0.3,6.4,2.1,6.6,6.1C112.7,52.6,112.5,55.9,112.5,59.2C112.5,59.2,112.5,59.2,112.5,59.2z"/>
	<path d="M150.5,112c-8.7,0-16.5-0.2-24.2,0.1c-4.1,0.1-5-1.4-5.1-5.2c-0.1-4.1,1.5-5,5.2-4.9c10.3,0.2,20.6,0,30.9,0.1
		c6.9,0,8.9,3.6,5.3,9.6c-7.1,12-14.3,23.9-21.4,35.9c-3.5,5.8-6.2,6.6-14.1,4.2C134.8,138.7,142.4,125.8,150.5,112z"/>
	<path d="M104.3,112.3c-8.9-0.5-8.9-0.5-7.7-10.2c5.1,0,10.4-0.2,15.6,0.2c0.9,0.1,2.4,2.2,2.4,3.4c0.2,14.4,0.1,28.9,0.1,43.3
		c0,4.7-3.2,3.6-5.9,3.8c-2.9,0.2-4.6-0.4-4.6-4c0.2-10.3,0.1-20.6,0.1-30.9C104.3,116.1,104.3,114.3,104.3,112.3z"/>
</g>
</svg>
