<?xml version="1.0" encoding="utf-8"?>
<!-- Generator: Adobe Illustrator 21.1.0, SVG Export Plug-In . SVG Version: 6.00 Build 0)  -->
<svg version="1.1" id="Capa_2" xmlns="http://www.w3.org/2000/svg" xmlns:xlink="http://www.w3.org/1999/xlink" x="0px" y="0px"
	 viewBox="0 0 256 225" style="enable-background:new 0 0 256 225;" xml:space="preserve">
<g>
	<path d="M127.7,220.8c-19.5,0-39-0.1-58.5,0.1c-3.1,0-4.7-1-6.3-3.6c-19.5-33.7-39-67.4-58.7-101.1c-1.5-2.6-1.7-4.5-0.1-7.2
		C23.9,75.2,43.6,41.4,63.1,7.5c1.4-2.5,3-3.4,5.9-3.4c39.3,0.1,78.7,0.1,118,0c2.9,0,4.5,0.9,5.9,3.4
		c19.6,33.9,39.2,67.7,58.9,101.5c1.6,2.7,1.3,4.6-0.1,7.2c-19.6,33.6-39.2,67.3-58.7,101.1c-1.5,2.7-3.2,3.6-6.3,3.6
		C167.1,220.7,147.4,220.8,127.7,220.8z M127.8,211.7c17.7,0,35.3-0.1,53,0.1c3.4,0,5.4-1.1,7.1-4.1c17.6-30.6,35.3-61.1,53.1-91.6
		c1.5-2.6,1.6-4.6,0-7.2c-17.8-30.5-35.5-61-53.1-91.6c-1.7-3-3.7-4.1-7.1-4.1c-35.2,0.1-70.3,0.1-105.5,0c-3.6,0-5.7,1.1-7.5,4.3
		C50.4,48,32.7,78.3,15,108.6c-1.6,2.8-1.7,4.8,0,7.7c17.7,30.3,35.4,60.7,52.9,91.1c1.8,3.1,3.8,4.4,7.5,4.3
		C92.9,211.6,110.4,211.7,127.8,211.7z"/>
	<path d="M200.5,52.9c-0.9,3.8-1.1,6.7-2.2,9.3c-8.4,19.7-17.1,39.2-25.6,58.9c-1.9,4.3-4.3,6.2-8.8,3.9
		c-10.3-5.4-18.3-3.5-26.4,5.3c-8.3,9-10.9,8.4-15-3.2c-4.2-12-11-19.4-24-20.2c-1.8-0.1-3.7-0.5-5.3-1.3c-1.8-0.9-3.2-2.4-4.8-3.7
		c1.3-1.4,2.4-3.2,4-4c8.1-3.8,16.4-7.2,24.6-10.8c25.2-11,50.4-22.1,75.7-33C194.6,53.2,197,53.4,200.5,52.9z M187.1,70.5
		c-0.2-0.1-0.4-0.3-0.7-0.4c-15,13.2-29.9,26.3-45.6,40.1c9,3,16.9,5.6,25.3,8.4C173.3,102.2,180.2,86.3,187.1,70.5z M103.9,100.3
		c0,0.5,0,0.9,0,1.4c4.9,0.3,10.9,2.5,14.6,0.5c12.9-7.1,25-15.6,37.5-23.6c-0.1-0.3-0.3-0.5-0.4-0.8
		C138.3,85.4,121.1,92.9,103.9,100.3z M127.3,121.4c0.3-10.6,8.2-15.6,14.9-21.5c4.3-3.7,8.5-7.5,12.8-11.3
		c-0.2-0.3-0.4-0.6-0.7-0.9c-10.9,7-21.8,14-32.9,21.2C123.6,113.4,125.4,117.4,127.3,121.4z"/>
	<path d="M79.8,168.5c-1.1-0.8-2.6-1.4-2.9-2.3c-0.3-0.9,0.3-2.5,1.1-3.2c6.1-5.4,12.2-10.7,18.5-15.9c6.5-5.5,12.9-10.9,19.6-16.1
		c1.1-0.9,3.4-0.3,5.1-0.5c-0.4,1.7-0.2,4-1.2,4.9c-12.2,10.5-24.6,20.8-36.9,31.1C82.1,167.2,81.1,167.7,79.8,168.5z"/>
	<path d="M103.1,119.2c-0.8,1.1-1.4,2.1-2.3,2.8c-12.4,10.5-24.8,21-37.4,31.3c-1.2,1-3.7,0.3-5.6,0.5c0.6-1.6,0.6-3.9,1.7-4.8
		c12.3-10.6,24.8-21.1,37.3-31.4c1-0.8,2.7-1.1,4-0.9C101.6,116.6,102.2,118.1,103.1,119.2z"/>
	<path d="M111.7,168.7c0.9-1.2,1.5-2.6,2.6-3.6c12.3-10.5,24.5-20.9,37-31.1c1.2-1,4.4-1.2,5.4-0.3c2.5,2.1,0,3.6-1.6,5
		c-11.2,9.4-22.3,18.9-33.6,28.2c-2.3,1.9-5.6,2.6-8.4,3.8C112.6,170,112.1,169.3,111.7,168.7z"/>
</g>
</svg>
