<?xml version="1.0" encoding="utf-8"?>
<!-- Generator: Adobe Illustrator 21.1.0, SVG Export Plug-In . SVG Version: 6.00 Build 0)  -->
<svg version="1.1" id="Capa_1" xmlns="http://www.w3.org/2000/svg" xmlns:xlink="http://www.w3.org/1999/xlink" x="0px" y="0px"
	 viewBox="0 0 1034 326" style="enable-background:new 0 0 1034 326;" xml:space="preserve">
<g>
	<path d="M112.2,83c-2.7,10.8-5.6,21.3-8,32c-0.7,3-1.8,4.2-4.9,4c-5.6-0.3-11.3-0.1-17.8-0.1c1.9-7.4,3.6-14.3,5.3-21.2
		c2.5-10,5-20,7.4-30c0.7-2.9,1.9-4,5-4c30,0.1,60,0,90,0.1c11.9,0,23,3.5,32.9,10c15.9,10.5,21,28.3,14.2,48.2
		c-9.1,27-37.1,49.3-65.5,50.7c-25.3,1.2-50.6,0.6-75.9,1.1c-5.8,0.1-11.7,0.7-17.2,2.3c-13,3.9-21.6,12.5-25,26
		c-5.1,20.8-10.4,41.6-15.6,62.4c-0.2,1-0.2,2-0.4,3.5c1.9,0,3.7,0,5.5,0c32.2,0,64.3,0.1,96.5-0.1c4.1,0,5.9,1.3,7.1,5
		c1.4,4.6,3.2,9,5,13.8c-47.1,0-93.7,0-140.8,0c3.9-15.7,7.7-31.1,11.5-46.6c3.2-12.7,6.4-25.5,9.5-38.2
		c6.2-25.3,27.5-44.5,53.5-45.8c26.3-1.3,52.6-0.4,78.9-1.2c17.7-0.5,32.5-7.9,43.3-22.3c5-6.7,7.8-14.4,6.9-22.9
		c-1.7-16.3-12.2-26.4-29.4-26.8C160.5,82.6,136.7,83,112.2,83z"/>
	<path d="M206.5,188.3c13,33.1,25.7,65.5,38.8,98.7c-8.2,0-15.8,0.1-23.3-0.1c-0.9,0-2.3-1.3-2.7-2.2
		c-13.7-35.1-27.3-70.2-41.1-105.7c4.1-1.3,7.8-2.3,11.5-3.6c22.4-7.8,39.2-22.3,50.2-43.3c17.5-33.2,2.9-64.7-33.7-73
		c-5.8-1.3-11.8-2-17.8-2c-31.3-0.2-62.6-0.1-94-0.1c-1.7,0-3.3,0-5.4,0c-5.2,20.6-10.3,41-15.5,61.7c-7.1,0-14.2,0-21.7,0
		C58.6,91.6,65.3,64.9,72,38c1.7,0,3,0,4.4,0c41.1,0,82.3-0.4,123.4,0.2c23.7,0.3,44.4,9,59.3,28.1c15.7,20.3,15.1,42.7,5.3,65.1
		c-10.8,24.7-29.7,41.8-53.1,54.3C209.8,186.6,208.4,187.3,206.5,188.3z"/>
	<path d="M72.1,242.1c10.7,0,20.3,0,29.9,0c9.3,0,18.7,0.1,28-0.1c2.7,0,4.2,0.5,5.1,3.3c1.7,5.2,3.8,10.2,5.9,15.7
		c-31.8,0-63.1,0-95,0c1.8-7.5,3.5-14.6,5.3-21.8c2.8-11.3,6.2-22.5,8.4-33.8c2.9-14.4,11-24.3,30.2-24.8c26.5-0.7,53-0.2,79.8-0.2
		c13.7,35.2,27.4,70.6,41.4,106.6c-7.9,0-15.2,0.2-22.5-0.2c-1.4-0.1-3.2-2.3-3.9-4c-10.2-26-20.3-52-30.2-78.1
		c-1.3-3.5-2.8-5.1-7-5.1c-18.2,0.3-36.3,0.2-54.5,0.1c-5.3,0-9.6,2-11.1,6.8C78.4,218,75.5,229.8,72.1,242.1z"/>
	<path d="M708.1,167.7c8-31.6,16-63.1,24-94.8c20.6,1,41-2,61,3.1c16.9,4.3,27.3,15.3,27.7,29.8c0.4,13.4-3.6,25.6-12.2,36
		c-13.3,16-31.2,23.9-51.3,25.6C741.2,168.8,724.8,167.7,708.1,167.7z M737,148c7.8,0,15.3,0.5,22.7-0.1c18-1.5,30.6-11.9,34.9-28
		c3-11.5-1.2-20.4-12.4-24.2c-5.2-1.8-11-2.4-16.6-2.8c-4.8-0.4-10.7-1.4-14,0.9c-2.8,1.9-2.7,8.1-3.9,12.5
		c-0.1,0.3-0.3,0.6-0.3,0.9C743.9,120.8,740.4,134.5,737,148z"/>
	<path d="M471.5,128.6c5.4,12.8,10.9,25.8,16.7,39.3c-9.2,0-17.8,0.1-26.4-0.2c-1.2,0-2.8-2-3.3-3.4c-3.6-10-6.9-20.1-10.4-30.2
		c-0.5-1.4-1-2.7-1.5-4.1c-3.9,0-7.5,0-11.4,0c-3.2,12.6-6.4,25.1-9.5,37.6c-8,0-15.6,0-23.8,0c2.8-10.9,5.4-21.4,8.1-32
		c4.9-19.5,10-38.9,14.7-58.5c0.8-3.4,1.9-4.6,5.6-4.6c14.5,0.3,29,0,43.5,0.4c5.2,0.2,10.6,1.3,15.5,3.1
		c10.3,3.7,14.5,12.3,12.1,23.2c-3.2,14.5-11.9,23.8-26.4,27.6c-0.8,0.2-1.6,0.5-2.4,0.8C472.3,127.9,472.1,128.2,471.5,128.6z
		 M439.9,111.9c7.3,0,14,0.3,20.6-0.1c3.2-0.2,6.6-1.2,9.5-2.6c4.7-2.2,7.2-7.6,6.1-12c-1.2-4.8-5.5-5.8-9.4-6
		c-7.1-0.4-14.3-0.1-21.6-0.1C443.4,97.9,441.7,104.7,439.9,111.9z"/>
	<path d="M694.2,148.4c-1.6,6.4-2.8,11.8-4.4,17c-0.3,1.1-2.2,2.5-3.3,2.5c-24.1,0.1-48.3,0.1-73.1,0.1c8.1-31.9,16-63.2,24-94.8
		c24.2,0,48.3,0,73.2,0c-1.5,5.9-2.8,11.7-4.6,17.3c-0.3,1-2.8,1.9-4.3,2c-13.5,0.1-27,0.1-40.5-0.1c-3.6-0.1-5.4,1-6.1,4.7
		c-0.7,4.2-2,8.4-3.1,13c15.5,0,30.6,0,46.4,0c-1.6,6.2-2.8,12.1-4.6,17.7c-0.3,1-2.9,1.8-4.4,1.8c-12.5,0.1-25,0.2-37.5,0
		c-3.6-0.1-5.5,0.7-6.1,4.6c-0.7,4.6-2.2,9-3.5,14.3C659.7,148.4,676.5,148.4,694.2,148.4z"/>
	<path d="M524,73.1c8.4,0,15.9,0,24,0c-2.9,11.5-5.7,22.7-8.5,33.8c-1.9,7.7-3.9,15.5-5.8,23.2c-3.3,13.3,5.5,22.8,19.1,20.7
		c12.4-1.9,21-9.8,24.2-22.1c4.4-17.2,8.7-34.5,13.1-51.7c0.3-1.3,0.7-2.5,1.1-3.8c7.8,0,15.5,0,23.7,0
		c-3.4,13.7-6.8,27.2-10.2,40.6c-1.5,6.1-3,12.3-4.7,18.3c-5.9,20.9-23.8,36.1-45.5,37.7c-7.9,0.6-16.1,0.4-23.8-1
		c-16.3-3.1-25.5-15.5-22.2-31.7C512.7,115.6,518.7,94.4,524,73.1z"/>
	<path d="M924.9,168.4c-8.5,0-16.3,0.2-24.1-0.2c-1.3-0.1-3.1-2.1-3.5-3.6c-1.4-5.3-2.3-10.7-3.5-16.5c-13.3,0-26.4-0.1-39.5,0.1
		c-1.3,0-2.8,1.5-3.7,2.7c-3.6,4.8-6.9,9.8-10.4,14.6c-0.8,1.1-2.1,2.5-3.3,2.6c-7.9,0.2-15.8,0.1-24.9,0.1c3.3-4.5,6-8.1,8.6-11.6
		c19.6-26.5,39.3-52.9,58.9-79.5c2.2-3,4.5-4.5,8.2-4.1c2.8,0.3,5.7,0.4,8.5,0c4.7-0.7,6.6,1.2,7.6,5.8
		C910.6,108.4,917.7,138,924.9,168.4z M884.6,101.3c-7,10-13.3,19.1-19.9,28.6c9,0,17.1,0,25.5,0
		C888.3,120.5,886.6,111.5,884.6,101.3z"/>
	<path d="M1028.2,80.1c-7.8,6.1-14.2,11.1-20.8,16.3c-7.6-6.6-16.2-7.2-25.3-4.3c-2.4,0.8-4.9,2.3-6.7,4.1
		c-4.1,4.1-3.3,9.3,1.9,11.8c3.5,1.8,7.5,2.7,11.2,4c4.4,1.5,8.9,2.7,13.1,4.6c10.2,4.5,13.6,11.9,10.9,22.7
		c-2.7,10.8-9.2,18.8-18.8,24c-15.7,8.5-32.3,10.1-49.2,4.6c-5.2-1.7-9.8-5.1-15.8-8.4c8.1-6.2,14.9-11.6,22-17
		c7.5,9.1,17,10.3,27.3,7.5c2.5-0.7,5-2.1,7-3.7c4.9-4.1,4.4-10-1.3-12.9c-4.3-2.2-8.9-3.5-13.4-5.2c-2.2-0.8-4.4-1.3-6.6-2.1
		c-18.2-6.2-21.1-18.8-11.2-34.5c8.7-13.7,22.8-19.1,38.3-20.3c7.5-0.6,15.3,0.4,22.7,2C1018.1,74.2,1022.4,77.4,1028.2,80.1z"/>
	<path d="M388.1,150c-1.5,6.2-2.9,11.8-4.4,17.7c-24.9,0-49.6,0-75.1,0c1.8-7,3.3-13.8,5.3-20.4c0.4-1.3,2.2-2.4,3.6-3.2
		c16.3-10.9,32.8-21.6,49.1-32.6c3.1-2.1,6.1-4.7,8.4-7.7c4.9-6.5,1.6-13-6.4-13.8c-7.5-0.7-13.6,2-17.2,8.6
		c-1.6,2.9-3.3,3.5-6.3,3.2c-5.8-0.6-11.5-0.9-17.8-1.4c2.5-9.1,7.7-15.8,15-20.7c13.2-8.7,27.8-10.9,43-6.7
		c12.7,3.4,17.7,12.8,15.1,25.6c-2.3,11.1-8.9,18.8-17.9,24.7c-11.8,7.8-23.8,15.3-35.7,22.9c-1.5,0.9-2.9,2-5.5,3.8
		C357.6,150,372.7,150,388.1,150z"/>
	<path d="M328.9,208.2c2.1,13.1,4.2,25.7,6.4,39.3c1.6-1.8,2.8-3.1,3.8-4.4c7.5-9.4,15.4-18.4,22.2-28.3c4.5-6.5,9.8-7.5,17.2-5.8
		c-0.7,2.4-1.4,4.7-2.1,7c-4.1,12.8-8.2,25.6-12.2,38.5c-2.2,7-2.2,7-10,5.8c4.1-13,8.1-25.9,12.2-38.8c-0.3-0.2-0.6-0.4-1-0.5
		c-3.3,4.1-6.5,8.1-9.8,12.2c-6.5,8.2-12.8,16.6-19.5,24.7c-1.2,1.5-3.7,2.3-5.8,2.6c-0.6,0.1-2-2.8-2.3-4.5
		c-1.8-10.8-3.3-21.7-5-32.5c-0.1-0.9-0.5-1.9-1.2-4.3c-2.2,6.7-4,12-5.7,17.3c-2,6.2-3.9,12.4-5.9,18.5c-2.1,6.5-2.1,6.5-9.6,4.9
		c1-3.3,2-6.6,3-9.9c3.8-12.2,7.9-24.3,11.5-36.6c1.2-4,2.9-6,7.2-5.3C324.2,208.5,326.2,208.2,328.9,208.2z"/>
	<path d="M482.4,251.1c4-12.4,7.8-24.1,11.5-35.7c2.2-6.9,2.2-6.9,10.1-6.1c-1.7,5.6-3.4,11-5.1,16.5c-3.3,10.3-6.6,20.5-9.8,30.8
		c-0.7,2.1-0.7,4.8-4.2,4.3c-3.4-0.5-7.3,1.5-9.4-3.8c-4.5-11.1-9.7-21.8-14.7-32.7c-0.7-1.6-1.6-3.1-2.9-5.7
		c-2.8,8.7-5.3,16.3-7.7,23.9c-1.3,3.9-2.5,7.9-3.7,11.9c-2.2,6.8-2.2,6.8-10.1,6c3-9.7,6-19.3,9-28.9c1.9-6,3.8-12,5.8-18
		c0.8-2.4,0.9-5.5,4.8-4.9c3.5,0.5,7.3-1.3,9.4,4c4.4,11.3,9.7,22.2,14.6,33.3C480.6,247.4,481.3,248.9,482.4,251.1z"/>
	<path d="M802.9,263.3c-3.3-0.5-6.6-0.7-9.8-1.6c-10.8-3.1-16.2-12.7-13.6-23.7c4.9-20.4,29.4-34.6,49.5-28.7
		c11.6,3.4,16.8,13.4,13.3,25.5C837.8,251,821,262.9,802.9,263.3z M804.8,256.1c12.9,0,24.6-8.4,28.5-20.4
		c3.7-11.4-2.2-20-14.2-20.7c-12.1-0.7-24.7,7.3-29.3,18.7C784.6,246.5,791,256.1,804.8,256.1z"/>
	<path d="M753.8,238.2c3,7.9,5.8,15.3,8.7,22.8c-8.9,2-9.7,1.6-12.2-5.7c-1.3-3.9-3-7.8-3.9-11.8c-0.9-3.8-2.8-4.8-6.6-4.8
		c-3.9-0.1-4.7,2.1-5.5,4.9c-1.2,4.1-2.5,8.2-3.8,12.4c-2,6.4-2,6.4-9.6,5.1c0.4-1.4,0.7-2.8,1.1-4.2c4.5-14.4,9.2-28.7,13.6-43.2
		c1.1-3.6,2.8-4.7,6.3-4.4c7.3,0.4,14.7,0.1,21.9,0.9c8.4,1,11.5,7.1,8.3,14.9c-2.5,6.1-7.4,9.6-13.4,11.8
		C757.1,237.4,755.7,237.7,753.8,238.2z M738.1,232c5.3,0,10.1,0.4,14.8-0.1c2.6-0.3,5.9-1.4,7.5-3.3c1.9-2.3,3.4-6,3-8.7
		c-0.3-1.7-4.5-3.4-7.1-3.8c-4.2-0.6-8.6-0.2-13.1-0.2C741.4,221.3,739.8,226.5,738.1,232z"/>
	<path d="M435.2,208.5c-0.1,5.6-2.1,7.4-6.8,7.1c-7.1-0.4-14.3-0.4-21.5-0.1c-1.4,0.1-3.5,1.6-4.1,2.9c-1.6,3.7-2.6,7.7-4,12.2
		c9.4,0,18.2,0,27.3,0c-0.1,4.7-1,7.5-6.4,7.1c-6.6-0.5-13.3-0.3-20,0c-1.4,0.1-3.5,1.6-4,3c-1.7,4.1-2.8,8.4-4.3,13.2
		c10.6,0,20.8,0,30.9,0c0.2,5.2-1.6,7.3-6.9,7.1c-11.3-0.4-22.6-0.1-34.5-0.1c4-12.7,7.8-24.8,11.7-37c1.3-4.1,2.5-8.3,4-12.3
		c0.5-1.3,2-3,3.1-3C411.4,208.4,423.2,208.5,435.2,208.5z"/>
	<path d="M719.6,209.1c-0.1,5.6-2.3,7.3-7.2,7c-7-0.5-14-0.1-21-0.2c-2.5-0.1-4,0.5-4.6,3.2c-0.9,3.8-2.3,7.6-3.7,12
		c9.4,0,18.3,0,27.9,0c-0.9,2.7-1.5,4.7-2.2,6.8c-8.2,0-16.2,0.1-24.1,0c-2.7,0-4.3,0.5-5,3.5c-1,4.2-2.5,8.2-4.1,13
		c10.6,0,20.7,0,31,0c0.1,5.6-1.9,7.4-7.1,7.2c-11.1-0.4-22.3-0.1-34-0.1c0.4-2,0.6-3.4,1-4.8c4.5-14.4,9.2-28.8,13.6-43.3
		c1-3.1,2.2-4.6,5.8-4.5C697.2,209.3,708.3,209.1,719.6,209.1z"/>
	<path d="M550.4,260.5c9.7-11.8,19-23.2,28.4-34.6c3.4-4.1,7.1-8,10.1-12.4c2.7-4,6-5.5,11.3-3.9c2.9,16.7,5.8,33.7,8.8,51.2
		c-3.2,0-6.1,0-9.5,0c-0.5-2.9-0.6-6.1-1.6-9c-0.4-1.4-2.3-3.2-3.6-3.3c-7.3-0.4-14.6-0.4-22-0.2c-1.5,0-3.3,1.2-4.5,2.3
		c-1.5,1.3-2.8,3-3.7,4.7C561.3,260.8,556.9,262.1,550.4,260.5z M574.6,241.8c7.7,0,14.5,0,21.8,0c-1.1-7.6-2.1-14.9-3.3-23.4
		C586.6,226.6,580.9,233.8,574.6,241.8z"/>
	<path d="M898.7,214.4c-2.7,1.8-5.1,3.4-7.5,4.9c-7.2-5.5-15.5-5.5-21-0.3c-4.8,4.6-4.2,9,1.9,11.6c3.4,1.4,7,2.1,10.4,3.5
		c7.1,2.8,9,7.3,6,14.3c-3.9,9-11.5,13.3-20.7,14.4c-4.5,0.5-9.3-0.1-13.8-1.1c-2.7-0.6-5.1-3-8.5-5.3c3.8-2.3,6.3-3.8,8.7-5.3
		c7.1,6.5,16.6,6.8,22.9,0.9c4.6-4.3,3.9-8.6-2-11c-3.5-1.4-7.3-2.4-10.7-3.9c-5.9-2.7-7.7-7-6.1-13c3.6-13.4,27.4-21,38.1-12.1
		C897.2,212.5,897.7,213.3,898.7,214.4z"/>
	<path d="M503.6,255.1c3-1.8,5.5-3.4,8-4.9c6.9,6.6,17.1,6.8,23.3,0.5c4.2-4.3,3.6-8.2-1.8-10.5c-3.5-1.5-7.3-2.3-10.8-3.9
		c-6.5-2.9-8.4-7.5-6.2-14.2c4.2-12.8,26.6-19.7,37.4-11.5c0.9,0.7,1.9,1.3,3.4,2.4c-3.4,2.2-5.8,3.8-8.3,5.4
		c-5.7-4.9-12.9-5.9-19.7-1.2c-2.1,1.5-4,4.9-3.9,7.3c0.1,1.9,3.2,4.2,5.5,5.3c3.2,1.7,7,2.2,10.3,3.7c6,2.6,7.7,6.9,5.3,13
		c-3.7,9.5-11.4,14.1-21.1,15.2C517.4,262.8,509.7,262.8,503.6,255.1z"/>
	<path d="M663.9,209.5c-4.3,13.4-8.2,26.4-12.8,39.2c-3.7,10.2-15.6,15.9-26.2,13.3c-5.8-1.4-7.8-4-7.8-10.9c2.4-0.5,4.9-1,7.3-1.5
		c4,7.5,11.8,8.2,16.6,1.4c1.8-2.5,2.9-5.6,3.9-8.5c3-9,5.8-18,8.7-27C655.8,208.6,655.8,208.6,663.9,209.5z"/>
</g>
</svg>
