<?xml version="1.0" encoding="utf-8"?>
<!-- Generator: Adobe Illustrator 21.1.0, SVG Export Plug-In . SVG Version: 6.00 Build 0)  -->
<svg version="1.1" id="Capa_2" xmlns="http://www.w3.org/2000/svg" xmlns:xlink="http://www.w3.org/1999/xlink" x="0px" y="0px"
	 viewBox="0 0 256 225" style="enable-background:new 0 0 256 225;" xml:space="preserve">
<g>
	<path d="M129.5,4.2c19.3,0,38.7,0.1,58-0.1c3.3,0,5,1,6.6,3.8c19.3,33.5,38.7,66.9,58.2,100.2c1.8,3.1,2,5.3,0.1,8.5
		c-19.6,33.5-39.1,67-58.5,100.6c-1.5,2.6-3.2,3.6-6.3,3.6c-39.2-0.1-78.3-0.1-117.5,0c-3.1,0-4.7-1-6.3-3.6
		c-19.5-33.7-39-67.4-58.7-101.1c-1.7-2.9-1.4-4.9,0.2-7.6C25,75.1,44.5,41.6,63.9,8c1.6-2.8,3.4-3.9,6.6-3.8
		C90.2,4.3,109.8,4.2,129.5,4.2z M128.5,211.7c17.5,0,35-0.1,52.5,0.1c3.9,0,6.3-1.1,8.3-4.6c17.4-30.3,35-60.5,52.6-90.7
		c1.6-2.7,1.8-4.8,0.2-7.7c-17.8-30.4-35.5-61-53.2-91.5c-1.6-2.8-3.3-4-6.7-4c-35.5,0.1-71,0.1-106.5,0c-3.3,0-5.1,1.2-6.7,4
		c-17.6,30.6-35.3,61.1-53.2,91.5c-1.7,2.9-1.5,4.9,0.1,7.7c17.6,30.2,35.2,60.4,52.6,90.7c2,3.6,4.4,4.7,8.3,4.6
		C94.2,211.6,111.3,211.7,128.5,211.7z"/>
	<path d="M97,109.2c6.9,0,12.5,0.2,18.1-0.1c1.4-0.1,2.9-1.8,4-3c5.2-6.1,13.8-6.3,18.5,0c2,2.7,4.1,3.4,7.1,3.2
		c5.3-0.3,10.2,0.7,14.3,4.5c5,4.6,6,10.4,4.3,16.4c-1.7,6.2-6.2,10.5-12.9,10.7c-11.3,0.5-22.6,0.3-34,0.5c-2.7,0-5.3,0-8,0.2
		c-4.6,0.4-7.7,3.6-7.7,7.6c0,3.9,3.3,7.6,7.6,7.9c4.3,0.3,8.3,0.7,11.6-4.1c4.3-6.1,13.6-5.3,17.9,1.1c1.8,2.7,3.8,3.2,6.6,3.1
		c7.7-0.1,15.3-0.2,23,0c3.2,0.1,5.4-0.4,7.4-3.5c2.9-4.4,8.2-5.8,12.8-4.1c4.7,1.8,7.8,4.9,8,10.3c0.3,6-2,9.9-6.9,12.1
		c-5.2,2.3-10.6,0.6-14.7-4.1c-1.3-1.5-3.6-2.8-5.5-2.8c-8.3-0.3-16.7-0.3-25,0c-1.8,0.1-4,1.3-5.1,2.7c-5.8,7-14.3,7-20.1,0.1
		c-1.2-1.5-3.6-2.4-5.6-2.8c-3.7-0.8-7.8-0.3-11.2-1.7c-6.9-2.9-10.2-10.9-8.4-18.4c1.5-6.3,8.2-11.6,15.1-11.7
		c13.2-0.1,26.3-0.1,39.5,0c4.3,0,7.5-2.3,7.8-6.2c0.2-2.6-1.4-6.1-3.4-8c-3.2-3-11.7-1.4-14.6,2c-5.2,6.1-13.2,5.8-18.7-0.2
		c-1.4-1.6-4-2.8-6.1-2.9c-7.1-0.4-14.3,0.1-21.5-0.3c-2.5-0.2-5.6-1.5-7.1-3.4c-6.4-7.9-12.5-16-18.2-24.4
		C59.4,80.1,59,69.7,65,59.4c6.3-10.6,16.2-14.8,28-13.1c11.1,1.6,18.6,8.4,22.1,19.2c2.9,8.8,1.3,17.1-3.9,24.5
		C106.9,96.1,102.3,102.1,97,109.2z M88.7,106.7c5.6-7.5,11.1-14.5,16.2-21.9c5.7-8.2,4.2-19.2-3.1-25.7c-7.4-6.6-18.2-6.7-25.9-0.2
		c-7.4,6.3-9.2,17.3-3.6,25.6C77.3,91.9,82.9,98.9,88.7,106.7z M129.4,109.2c-0.6,0-1.3,0-1.9,0c-0.9,1.5-2.5,3-2.4,4.4
		c0.1,1.2,2.3,3.4,3.2,3.3c1.5-0.3,3.4-2,3.7-3.4C132.1,112.3,130.3,110.7,129.4,109.2z M189.6,160.8c-2.5-1.5-4.1-3.3-5.5-3.2
		c-1.3,0.2-3.3,2.5-3.2,3.7c0.1,1.3,2.3,3.5,3.6,3.5C185.8,164.8,187.2,162.8,189.6,160.8z M128.7,166.6c1.6-2.6,3.3-4.3,3.2-5.7
		c-0.1-1.3-2.3-2.4-3.6-3.6c-1.2,1.3-3.2,2.6-3.2,3.9C125,162.7,126.9,164.2,128.7,166.6z"/>
	<path d="M76.9,73.4c0.2-6.9,5.2-11.5,12.3-11.3c6.4,0.2,11.7,5.6,11.5,11.9c-0.1,6.4-5.9,12-12.4,11.8
		C81.7,85.7,76.8,80.3,76.9,73.4z M94,74.1c-2.5-2-4-4.1-5.2-3.9c-1.4,0.2-2.6,2.3-4,3.5c1.3,1.2,2.4,3,3.9,3.4
		C89.8,77.4,91.4,75.7,94,74.1z"/>
</g>
</svg>
